<svg width="318" height="314" viewBox="0 0 318 314" fill="none" xmlns="http://www.w3.org/2000/svg">
<path d="M167.586 285.296C141.348 285.296 115.128 282.186 89.8321 275.311C71.6207 270.363 53.4188 263.161 39.8529 250.051C33.458 243.871 28.3636 236.497 24.6498 228.453C27.9381 231.453 31.5321 234.096 35.2894 236.314C39.3178 238.692 43.5529 240.629 47.9244 242.171V251.179C47.9244 255.031 50.6191 258.152 53.9432 258.152H106.249V275.718C106.249 276.753 107.092 277.594 108.127 277.594H195.963C196.999 277.594 197.841 276.753 197.841 275.718V275.465C199.913 275.653 201.992 275.746 204.071 275.746C212.918 275.746 221.751 274.046 229.927 270.567C231.472 269.909 233.002 269.174 234.505 268.366C234.888 269.272 235.567 270.008 236.45 270.466C237.06 270.783 237.722 270.943 238.39 270.943C238.818 270.943 239.249 270.877 239.669 270.744C240.745 270.403 241.623 269.665 242.143 268.665C242.663 267.664 242.761 266.522 242.42 265.447L241.862 263.684C244.166 261.972 246.364 260.084 248.422 258.043L250.158 258.944C250.769 259.26 251.432 259.42 252.1 259.42C252.529 259.42 252.958 259.354 253.378 259.221C254.454 258.881 255.332 258.143 255.851 257.142C256.91 255.103 256.134 252.588 254.124 251.493C255.022 250.291 255.873 249.053 256.67 247.785C261.346 246.498 265.869 244.789 270.169 242.617C270.992 243.895 272.342 244.825 273.961 245.06C274.224 245.098 274.487 245.118 274.746 245.118C277.401 245.117 279.731 243.165 280.123 240.464L280.785 235.915C284.338 235.723 287.758 234.855 290.97 233.333L293.722 237.017C294.59 238.18 295.86 238.936 297.298 239.145C297.562 239.183 297.826 239.202 298.09 239.202C299.179 239.202 300.236 238.876 301.146 238.255C300.025 239.793 298.851 241.293 297.624 242.752C274.832 269.844 237.658 279.969 202.417 283.519C190.852 284.685 179.219 285.297 167.586 285.296ZM195.963 276.211H108.127C107.855 276.211 107.634 275.99 107.634 275.718V258.152H141.565H156.509H158.193C162.991 262.573 168.455 266.225 174.263 269.01C181.239 272.357 188.782 274.48 196.456 275.327V275.718C196.456 275.99 196.236 276.211 195.963 276.211ZM117.455 268.136C117.072 268.136 116.762 268.445 116.762 268.827C116.762 269.21 117.072 269.519 117.455 269.519H142.096C142.479 269.519 142.789 269.21 142.789 268.827C142.789 268.445 142.479 268.136 142.096 268.136H117.455ZM117.455 261.292C117.072 261.292 116.762 261.601 116.762 261.984C116.762 262.366 117.072 262.676 117.455 262.676H153.994C154.376 262.676 154.686 262.366 154.686 261.984C154.686 261.601 154.376 261.292 153.994 261.292H117.455ZM238.39 269.559C237.942 269.559 237.496 269.451 237.087 269.238C236.45 268.908 235.971 268.361 235.727 267.691C237.417 266.73 239.071 265.678 240.68 264.541L241.101 265.865C241.329 266.587 241.263 267.355 240.914 268.028C240.564 268.7 239.974 269.195 239.251 269.425C238.968 269.514 238.679 269.559 238.39 269.559ZM252.101 258.036C251.651 258.036 251.206 257.928 250.796 257.716L249.438 257.011C250.785 255.608 252.067 254.138 253.269 252.608L253.411 252.681C254.799 253.402 255.343 255.118 254.622 256.505C254.273 257.177 253.683 257.673 252.961 257.902C252.677 257.992 252.389 258.036 252.101 258.036ZM274.744 243.733C274.551 243.733 274.356 243.719 274.16 243.691C272.999 243.522 272.023 242.874 271.405 241.977C272.066 241.625 272.72 241.264 273.369 240.889C275.403 239.719 277.352 238.449 279.215 237.09L278.754 240.266C278.461 242.28 276.724 243.733 274.744 243.733ZM298.091 237.818C297.894 237.818 297.696 237.804 297.497 237.775C296.425 237.62 295.479 237.057 294.831 236.19L291.39 231.583L290.873 231.842C288.287 233.133 285.553 233.973 282.717 234.347C287.052 230.709 290.84 226.57 294.034 222.096C295.621 220.373 296.881 218.394 297.771 216.237C300.107 212.116 301.972 207.794 303.335 203.381C303.603 202.511 303.855 201.645 304.089 200.783C304.791 203.007 305.185 205.316 305.265 207.684L305.284 208.262L310.977 209.089C312.496 209.309 313.698 210.351 314.197 211.698C313.719 213.303 313.196 214.896 312.632 216.47C311.983 216.9 311.209 217.146 310.395 217.146C310.202 217.146 310.008 217.132 309.812 217.104L304.119 216.277L303.936 216.826C302.747 220.387 300.844 223.58 298.282 226.316L297.886 226.739L301.326 231.346C302.664 233.135 302.294 235.677 300.504 237.013C299.796 237.54 298.958 237.818 298.091 237.818ZM303.355 235.069C303.731 233.545 303.447 231.871 302.437 230.518L299.685 226.834C302.059 224.192 303.864 221.162 305.06 217.812L309.613 218.472C309.877 218.511 310.14 218.53 310.4 218.53C310.935 218.53 311.456 218.45 311.952 218.302C309.695 224.182 306.821 229.817 303.355 235.069ZM314.732 209.825C313.899 208.723 312.65 207.933 311.176 207.72L306.623 207.058C306.46 204.057 305.815 201.152 304.699 198.386C304.888 197.589 305.062 196.793 305.221 196L307.726 194.132C310.129 192.341 310.625 188.929 308.832 186.529C308.21 185.696 307.393 185.092 306.492 184.734C306.621 179.251 306.034 173.727 304.73 167.978C301.884 155.423 297.079 142.768 298.572 129.687C298.603 129.417 298.636 129.148 298.672 128.879C308.819 142.529 315.517 158.73 317.432 175.613C318.008 180.686 318.14 185.809 317.843 190.907C317.472 197.299 316.426 203.655 314.732 209.825ZM305.593 193.995C306.034 191.4 306.316 188.819 306.439 186.233C306.935 186.508 307.372 186.888 307.721 187.355C309.058 189.145 308.689 191.688 306.898 193.023L305.593 193.995ZM244.882 47.9129C244.398 47.7483 243.916 47.5871 243.432 47.4287C226.118 41.7613 208.329 37.452 190.355 37.452C187.648 37.452 184.941 37.5496 182.227 37.7551C177.817 38.0885 173.766 38.3161 170.003 38.4448C161.516 37.2431 153.058 36.597 144.657 36.5402C157.383 28.5878 173.187 24.3878 188.882 24.3878C197.978 24.3878 207.038 25.7992 215.438 28.7075C226.605 32.5741 236.79 39.2847 244.882 47.9129Z" fill="#F6F5FB"/>
<path d="M136.663 25.0118C131.58 25.0118 127.46 20.8942 127.46 15.8156C127.46 10.7363 131.58 6.61928 136.663 6.61928C141.745 6.61928 145.866 10.7363 145.866 15.8156C145.866 20.8942 141.745 25.0118 136.663 25.0118Z" fill="#F9F8FC"/>
<path d="M261.024 14.9529C258.401 14.9529 256.275 12.8276 256.275 10.2077C256.275 7.58716 258.401 5.46261 261.024 5.46261C263.646 5.46261 265.772 7.58716 265.772 10.2077C265.772 12.8276 263.646 14.9529 261.024 14.9529Z" fill="#F9F8FC"/>
<path d="M20.016 281.483C12.0143 281.483 5.52765 275.001 5.52765 267.005C5.52765 259.01 12.0143 252.528 20.016 252.528C28.018 252.528 34.5049 259.01 34.5049 267.005C34.5049 275.001 28.018 281.483 20.016 281.483Z" fill="#F9F8FC"/>
<path d="M300.893 50.9936C297.962 50.9936 295.012 49.4965 292.478 45.7344C287.429 38.2373 275.047 31.3378 279.178 23.2989C281.636 18.5123 288.11 16.4687 294.646 16.4687C299.087 16.4687 303.557 17.413 306.812 19.083C314.857 23.2097 318.032 33.0722 313.901 41.1117C311.257 46.2574 306.106 50.9943 300.893 50.9936Z" fill="#F9FBFD"/>
<path d="M285.515 290.199C283.185 290.199 280.826 289.55 278.723 288.193C272.901 284.438 268.308 276.096 276.818 271.524C281.89 268.798 287.031 262.182 291.964 262.182C292.966 262.182 293.96 262.455 294.942 263.089C300.763 266.844 299.825 278.645 296.066 284.461C293.667 288.175 289.634 290.199 285.515 290.199Z" fill="#F5F3FA"/>
<path d="M20.2856 33.7314C18.5491 33.7308 16.9259 33.1891 15.4714 31.8393C9.0691 25.898 12.8297 11.4502 18.7755 5.05235C21.8929 1.69844 26.1259 0.00143814 30.3719 0.00143814C34.2247 0.00143814 38.0883 1.39958 41.1338 4.22633C47.5366 10.1669 51.4075 21.5362 39.8329 25.3453C33.4196 27.4567 26.1932 33.7314 20.2856 33.7314Z" fill="#F5F3FA"/>
<path d="M24.6498 228.453C23.0848 227.025 21.5892 225.516 20.1772 223.933C20.414 224.041 20.6769 224.101 20.9539 224.101H22.8005C23.3731 225.57 23.9897 227.023 24.6498 228.453ZM19.1525 222.753C10.9501 213.058 5.90572 200.784 7.28578 187.496C8.3335 177.409 8.85061 167.965 10.9166 157.77C14.3088 141.034 4.53347 128.98 1.31408 113.291C-1.425 99.9455 0.133848 85.6707 5.84162 73.2886C7.11761 70.522 8.60019 67.8495 10.2883 65.303C24.9341 43.2148 51.3894 23.799 76.8846 23.799C80.2093 23.799 83.518 24.129 86.7817 24.8264C110.56 29.9084 124.005 34.2364 138.185 36.6142C113.243 37.3565 88.8151 43.4099 65.4347 55.6736C55.67 60.7951 39.7705 76.0565 36.4962 86.5797C35.8779 88.5652 35.5231 90.5694 35.3438 92.5853C34.4643 102.473 37.8016 112.662 35.012 122.454C31.6722 134.177 22.0046 142.958 18.0639 154.468C12.8286 169.758 12.526 186.705 17.6571 202.014C17.9398 205.226 18.4141 208.418 19.0767 211.57V222.225C19.0767 222.408 19.1032 222.585 19.1525 222.753ZM39.6147 57.7491C39.0413 57.7491 38.5762 58.2133 38.5762 58.7868C38.5762 59.3596 39.0413 59.8245 39.6147 59.8245C40.1883 59.8245 40.6532 59.3596 40.6532 58.7868C40.6532 58.2133 40.1883 57.7491 39.6147 57.7491ZM93.3922 30.0447C89.8771 30.0447 87.0288 32.8915 87.0288 36.4032C87.0288 39.9148 89.8771 42.761 93.3922 42.761C96.9058 42.761 99.7548 39.9148 99.7548 36.4032C99.7548 32.8915 96.9058 30.0447 93.3922 30.0447ZM22.2767 222.717H20.9539C20.6823 222.717 20.4614 222.496 20.4614 222.225V217.157C20.9985 219.034 21.6035 220.888 22.2767 222.717ZM298.672 128.879C296.867 126.45 294.95 124.099 292.934 121.843C293.137 120.259 293.29 118.669 293.394 117.074C293.404 116.918 293.414 116.761 293.424 116.604C293.85 109.425 292.785 102.438 290.469 95.971V81.984C290.469 80.2621 289.059 78.8535 287.336 78.8535H280.352C278.056 76.2482 275.497 73.86 272.708 71.7334V63.0906C272.708 61.8176 271.675 60.7854 270.4 60.7854H254.312C253.448 59.0981 252.462 57.4371 251.318 55.812C249.363 53.0344 247.209 50.3944 244.882 47.9129C265.509 54.9362 284.884 67.3618 296.562 85.7142C299.835 90.8578 302.512 96.5577 303.019 102.632C303.761 111.504 299.854 120.051 298.672 128.879Z" fill="#F5F3FA"/>
<path d="M256.67 247.785C259.914 242.622 262.278 236.931 263.416 230.92C265.444 232.358 267.654 233.508 270.023 234.353L269.362 238.902C269.166 240.249 269.485 241.553 270.169 242.617C265.869 244.789 261.346 246.498 256.67 247.785ZM47.9245 242.171C43.5529 240.629 39.3178 238.692 35.2895 236.314C31.5321 234.096 27.9382 231.453 24.6498 228.453C23.9897 227.023 23.3731 225.57 22.8005 224.101H30.706C31.9835 225.375 33.3401 226.563 34.778 227.649C38.7641 230.659 43.2214 232.775 47.9245 234.186V242.171ZM271.405 241.977C270.847 241.165 270.579 240.15 270.732 239.101L271.559 233.414L271.01 233.23C268.349 232.343 265.892 231.057 263.677 229.396C264.063 226.883 264.233 224.318 264.162 221.716C268.075 226.212 273.651 228.577 279.29 228.577C283.455 228.577 287.654 227.287 291.241 224.612C292.259 223.853 293.192 223.011 294.034 222.096C290.84 226.57 287.052 230.709 282.717 234.347C281.873 234.459 281.02 234.529 280.159 234.558L279.581 234.576L279.215 237.09C277.352 238.449 275.403 239.719 273.369 240.889C272.72 241.264 272.066 241.625 271.405 241.977ZM279.287 227.194C273.601 227.194 267.982 224.61 264.328 219.718C264.226 219.582 264.127 219.444 264.03 219.307C263.814 216.643 263.387 213.982 262.916 211.327L263.8 206.537L265.811 203.148L281.027 218.519C282.857 220.368 285.256 221.293 287.656 221.293C290.055 221.293 292.454 220.368 294.284 218.519C296.115 216.67 297.03 214.247 297.03 211.823C297.03 209.4 296.115 206.977 294.284 205.127L279.259 189.95C280.15 189.952 281.047 190.017 281.944 190.148C286.871 190.862 291.224 193.452 294.201 197.439C297.179 201.425 298.425 206.332 297.709 211.255C296.994 216.178 294.402 220.528 290.413 223.503C287.073 225.992 283.165 227.194 279.287 227.194ZM29.3799 222.717H22.2767C21.6035 220.888 20.9986 219.034 20.4614 217.157V209.056C22.7781 214.037 25.7303 218.735 29.3799 222.717ZM297.771 216.237C298.396 214.722 298.837 213.118 299.08 211.453C299.848 206.165 298.511 200.894 295.311 196.611C292.113 192.328 287.437 189.546 282.143 188.778C281.167 188.636 280.191 188.565 279.223 188.565C278.79 188.565 278.359 188.58 277.93 188.608L275.746 186.402L277.994 182.613C278.12 182.607 278.245 182.602 278.37 182.598L278.949 182.578L279.252 180.494L283.439 173.437C283.552 173.427 283.666 173.422 283.782 173.422C283.975 173.422 284.171 173.436 284.369 173.464C285.44 173.62 286.387 174.183 287.034 175.05C287.682 175.917 287.953 176.984 287.797 178.054L286.971 183.743L287.52 183.925C291.082 185.113 294.278 187.014 297.016 189.575L297.44 189.971L302.05 186.533H302.05C302.757 186.006 303.598 185.728 304.464 185.728C304.661 185.728 304.859 185.742 305.057 185.77C305.55 185.842 306.016 186 306.439 186.233C306.316 188.819 306.034 191.4 305.593 193.995L302.288 196.462L302.547 196.979C303.165 198.215 303.68 199.484 304.089 200.783C303.855 201.645 303.603 202.511 303.335 203.381C301.972 207.794 300.107 212.116 297.771 216.237ZM19.0767 211.57C18.4142 208.418 17.9398 205.226 17.6572 202.014C18.0913 203.309 18.5645 204.594 19.0767 205.863V211.57ZM304.699 198.386C304.495 197.88 304.275 197.378 304.04 196.882L305.221 196C305.062 196.793 304.888 197.589 304.699 198.386ZM297.535 188.173C294.89 185.801 291.857 183.997 288.505 182.803L289.167 178.253C289.376 176.817 289.013 175.386 288.144 174.223C287.275 173.06 286.005 172.304 284.568 172.096C284.464 172.081 284.36 172.068 284.257 172.059L298.211 148.54C298.572 147.931 298.371 147.146 297.763 146.785L295.596 145.501L296.244 144.41C296.605 143.801 296.404 143.016 295.795 142.655L288.922 138.583C290.853 133.18 292.207 127.554 292.934 121.843C294.951 124.099 296.867 126.45 298.673 128.879C298.636 129.148 298.603 129.417 298.572 129.687C297.079 142.768 301.884 155.423 304.73 167.978C306.034 173.727 306.621 179.251 306.492 184.734C305.847 184.477 305.158 184.347 304.467 184.347C303.336 184.347 302.196 184.697 301.222 185.424L297.535 188.173ZM254.312 60.7855H248.798L208.672 47.5988C195.756 43.3539 182.842 40.2635 170.003 38.4448C173.766 38.3161 177.817 38.0885 182.227 37.755C184.941 37.5495 187.648 37.452 190.355 37.452C208.329 37.452 226.118 41.7613 243.432 47.4286C243.917 47.5871 244.398 47.7482 244.882 47.9129C247.209 50.3944 249.363 53.0344 251.318 55.812C252.462 57.4371 253.448 59.0981 254.312 60.7855Z" fill="#EEEBF7"/>
<path d="M93.3922 42.761C89.8772 42.761 87.0289 39.9149 87.0289 36.4032C87.0289 32.8916 89.8772 30.0448 93.3922 30.0448C96.9058 30.0448 99.7548 32.8916 99.7548 36.4032C99.7548 39.9149 96.9058 42.761 93.3922 42.761Z" fill="#F0EDF8"/>
<path d="M143.339 37.3842C141.599 37.1572 139.885 36.8992 138.185 36.6142C139.939 36.5623 141.696 36.536 143.455 36.536C143.856 36.536 144.255 36.5374 144.657 36.5401C144.213 36.8175 143.775 37.0977 143.339 37.3842Z" fill="#EBE7F6"/>
<path d="M204.071 275.746C201.992 275.746 199.913 275.653 197.841 275.465V245.503C200.766 246.409 203.752 247.212 206.779 247.905C206.143 248.3 205.622 248.86 205.268 249.542C204.749 250.542 204.65 251.685 204.991 252.759C205.559 254.555 207.226 255.706 209.018 255.705C209.44 255.705 209.868 255.642 210.291 255.508L213.416 254.519C214.676 256.759 216.318 258.71 218.31 260.332L216.8 263.24C216.28 264.24 216.181 265.383 216.522 266.457C216.863 267.532 217.601 268.41 218.602 268.928C219.222 269.249 219.885 269.402 220.54 269.402C222.068 269.402 223.544 268.572 224.296 267.127L225.806 264.219C227.607 264.724 229.444 264.978 231.297 264.978C231.99 264.978 232.684 264.943 233.379 264.872L234.369 267.995C234.409 268.122 234.455 268.246 234.505 268.366C233.002 269.174 231.472 269.909 229.927 270.567C221.751 274.046 212.918 275.746 204.071 275.746ZM196.456 275.327C188.782 274.48 181.239 272.357 174.263 269.01C168.455 266.225 162.991 262.573 158.193 258.152H163.001C165.412 258.152 167.538 256.93 168.792 255.072H185.228C185.61 255.072 185.92 254.763 185.92 254.38C185.92 253.998 185.61 253.689 185.228 253.689H169.515C169.815 252.91 169.98 252.063 169.98 251.179V240.734H184.484C187.644 241.925 190.796 243.138 193.978 244.239C194.798 244.523 195.626 244.799 196.456 245.067V275.327ZM171.006 261.292C170.623 261.292 170.314 261.601 170.314 261.984C170.314 262.366 170.623 262.676 171.006 262.676H185.228C185.61 262.676 185.92 262.366 185.92 261.984C185.92 261.601 185.61 261.292 185.228 261.292H171.006ZM171.006 246.519C170.623 246.519 170.314 246.829 170.314 247.211C170.314 247.594 170.623 247.903 171.006 247.903H185.228C185.61 247.903 185.92 247.594 185.92 247.211C185.92 246.829 185.61 246.519 185.228 246.519H171.006ZM254.124 251.493C254.099 251.48 254.075 251.466 254.049 251.453L251.138 249.944C251.221 249.648 251.298 249.351 251.368 249.053C253.154 248.688 254.922 248.266 256.67 247.785C255.873 249.053 255.022 250.291 254.124 251.493ZM180.758 239.351H169.98V235.957C173.64 236.869 177.213 238.062 180.758 239.351ZM162.732 38.5748C155.439 38.5748 149.221 38.1514 143.339 37.3842C143.775 37.0978 144.213 36.8176 144.657 36.5402C153.058 36.5969 161.516 37.2431 170.003 38.4447C167.456 38.5326 165.04 38.5748 162.732 38.5748Z" fill="#E9E5F5"/>
<path d="M17.6572 202.014C12.526 186.705 12.8286 169.758 18.0639 154.468C22.0046 142.958 31.6723 134.177 35.012 122.454C37.8016 112.662 34.4643 102.473 35.3438 92.5854C35.5231 90.5694 35.878 88.5652 36.4962 86.5797C39.7705 76.0566 55.67 60.7952 65.4348 55.6737C88.8151 43.4099 113.243 37.3566 138.185 36.6143C139.885 36.8993 141.599 37.1573 143.339 37.3842C137.969 40.9104 133.185 45.1284 129.244 49.9974H91.5644H88.1144C87.4934 49.9974 86.9901 50.501 86.9901 51.1216V54.5689V80.2213C85.4939 81.0051 84.4236 82.5174 84.2858 84.3237L83.8655 89.8292C79.7163 90.2505 75.8053 91.567 72.3463 93.5989L68.7475 89.4086C67.7452 88.2422 66.3262 87.6424 64.899 87.6424C63.731 87.6424 62.5575 88.0436 61.6012 88.8634C59.4771 90.685 59.2332 93.8818 61.0557 96.0043L64.6543 100.195C62.1189 103.302 60.2233 106.965 59.1766 110.999L53.6668 110.579C53.5354 110.569 53.4045 110.564 53.2749 110.564C50.6516 110.564 48.431 112.586 48.2282 115.243C48.0151 118.031 50.1045 120.465 52.8953 120.678L58.4051 121.098C58.4618 121.657 58.5351 122.213 58.6241 122.763C41.6315 133.251 28.3246 149.638 21.755 168.854H20.9539C19.9186 168.854 19.0767 169.696 19.0767 170.73V178.536C18.941 179.172 18.8128 179.81 18.6919 180.451C17.3543 187.538 17.0238 194.819 17.6572 202.014ZM20.4614 172.979V170.73C20.4614 170.459 20.6823 170.238 20.9539 170.238H21.2949C21.0023 171.145 20.7238 172.06 20.4614 172.979ZM292.934 121.843C290.287 118.88 287.465 116.074 284.484 113.45C280.386 109.843 275.929 106.475 272.153 102.572H287.336C289.059 102.572 290.469 101.163 290.469 99.4412V95.9711C292.785 102.438 293.85 109.425 293.424 116.604C293.414 116.761 293.404 116.918 293.394 117.074C293.29 118.669 293.137 120.259 292.934 121.843ZM280.352 78.8536H272.708V71.7334C275.497 73.8601 278.056 76.2482 280.352 78.8536Z" fill="#E8E4F5"/>
<path d="M251.367 249.053C251.598 248.065 251.753 247.067 251.833 246.063L255.094 246.664C255.173 246.678 255.251 246.685 255.328 246.685C255.934 246.685 256.473 246.253 256.587 245.636L259.446 230.137L260.994 228.982C261.769 229.677 262.577 230.323 263.416 230.92C262.278 236.931 259.914 242.622 256.67 247.785C254.922 248.266 253.154 248.688 251.367 249.053ZM206.779 247.905C203.752 247.212 200.766 246.409 197.841 245.504V236.119L210.718 238.49L211.52 238.906C210.825 241.378 210.606 243.918 210.867 246.474L207.741 247.463C207.399 247.571 207.076 247.72 206.779 247.905ZM196.456 245.067C195.626 244.799 194.798 244.523 193.978 244.239C190.796 243.138 187.644 241.925 184.484 240.734H185.228C185.61 240.734 185.92 240.424 185.92 240.042C185.92 239.66 185.61 239.351 185.228 239.351H180.758C177.213 238.063 173.64 236.869 169.98 235.957V230.987L196.456 235.863V245.067ZM47.9244 234.186C43.2213 232.775 38.7641 230.659 34.778 227.649C33.3401 226.563 31.9835 225.375 30.7059 224.101H47.9244V234.186ZM47.9244 222.717H29.3799C25.7303 218.735 22.778 214.037 20.4614 209.056V172.979C20.7237 172.06 21.0023 171.145 21.2949 170.238H48.554C48.1505 171.215 47.9244 172.31 47.9244 173.466V185.622H33.1675C32.7851 185.622 32.4752 185.932 32.4752 186.314C32.4752 186.696 32.7851 187.006 33.1675 187.006H47.9244V192.793V194.168H33.1675C32.7851 194.168 32.4752 194.477 32.4752 194.859C32.4752 195.242 32.7851 195.551 33.1675 195.551H47.9244V202.226H33.1675C32.7851 202.226 32.4752 202.535 32.4752 202.918C32.4752 203.3 32.7851 203.61 33.1675 203.61H47.9244V210.283H33.1675C32.7851 210.283 32.4752 210.592 32.4752 210.975C32.4752 211.357 32.7851 211.666 33.1675 211.666H47.9244V215.012V222.717ZM19.0767 205.863C18.5645 204.594 18.0912 203.309 17.6571 202.014C17.0238 194.819 17.3542 187.538 18.6918 180.451C18.8128 179.81 18.9409 179.172 19.0767 178.536V205.863ZM49.295 168.854H21.755C28.3246 149.638 41.6314 133.252 58.6241 122.763C59.1953 126.29 60.4185 129.618 62.1777 132.608L57.9845 136.204C55.8604 138.025 55.6159 141.222 57.4387 143.345C58.441 144.512 59.8598 145.111 61.2869 145.111C62.455 145.111 63.629 144.71 64.585 143.89L68.7783 140.294C71.8887 142.828 75.5539 144.722 79.591 145.768L79.1707 151.273C78.9575 154.062 81.047 156.495 83.8378 156.708C83.9694 156.718 84.0995 156.723 84.229 156.723C85.2398 156.723 86.1911 156.423 86.9901 155.902V165.978H61.91H55.4177H54.3865C52.3189 165.978 50.478 167.104 49.295 168.854ZM288.922 138.583L277.575 131.861L278.324 127.8C278.453 127.105 277.992 126.436 277.296 126.308L276.175 126.102L276.705 123.226L261.421 120.411C259.405 113.811 256.103 107.768 251.808 102.572H272.153C275.929 106.475 280.386 109.843 284.484 113.45C287.465 116.074 290.287 118.88 292.934 121.844C292.207 127.554 290.852 133.18 288.922 138.583ZM183.159 92.3868V51.363C183.159 50.6089 182.548 49.9974 181.793 49.9974H181.431H179.936H129.244C133.185 45.1284 137.969 40.9104 143.339 37.3842C149.221 38.1515 155.439 38.5749 162.732 38.5749C165.04 38.5749 167.456 38.5327 170.003 38.4448C182.842 40.2636 195.756 43.3539 208.672 47.5989L248.798 60.7855H218.897C217.623 60.7855 216.589 61.8177 216.589 63.0906V81.3911C216.589 82.6648 217.623 83.697 218.897 83.697H227.171V86.0298C222.324 84.5264 217.174 83.717 211.838 83.717C201.242 83.717 191.377 86.9118 183.159 92.3868Z" fill="#E7E3F4"/>
<path d="M220.542 268.019C220.103 268.019 219.657 267.916 219.241 267.7C218.567 267.351 218.071 266.762 217.842 266.039C217.613 265.317 217.679 264.549 218.029 263.877L220.068 259.949L219.61 259.596C217.418 257.91 215.654 255.814 214.365 253.365L214.095 252.853L209.873 254.189C209.589 254.279 209.301 254.322 209.018 254.322C207.814 254.322 206.693 253.548 206.311 252.341C206.082 251.619 206.147 250.851 206.497 250.179C206.846 249.507 207.436 249.01 208.159 248.782L209.237 248.441C211.886 248.99 214.563 249.454 217.255 249.825C218.574 253.273 221.079 256.081 224.384 257.796C226.562 258.925 228.927 259.496 231.312 259.496C232.842 259.496 234.38 259.261 235.881 258.786C239.72 257.572 242.854 254.936 244.71 251.365C244.931 250.94 245.13 250.507 245.308 250.069C246.838 249.867 248.358 249.626 249.867 249.346C249.8 249.595 249.728 249.843 249.651 250.09L249.479 250.643L253.269 252.608C252.067 254.138 250.785 255.608 249.438 257.011L246.865 255.677L246.512 256.135C244.824 258.325 242.726 260.088 240.275 261.377L239.763 261.646L240.681 264.541C239.072 265.678 237.418 266.73 235.727 267.691C235.714 267.653 235.701 267.616 235.689 267.578L234.352 263.358L233.778 263.433C232.951 263.54 232.126 263.593 231.303 263.593C229.397 263.593 227.506 263.307 225.66 262.734L225.107 262.562L223.067 266.489C222.562 267.46 221.569 268.019 220.542 268.019ZM241.862 263.684L241.43 262.324C243.672 261.065 245.625 259.424 247.249 257.435L248.422 258.043C246.364 260.084 244.166 261.972 241.862 263.684Z" fill="#E9E5F5"/>
<path d="M245.308 250.069C245.962 248.46 246.328 246.77 246.399 245.062L250.463 245.811C250.377 247.001 250.179 248.182 249.867 249.346C248.358 249.626 246.838 249.867 245.308 250.069ZM217.255 249.825C214.563 249.454 211.886 248.99 209.237 248.441L212.381 247.446L212.306 246.872C211.957 244.179 212.177 241.499 212.963 238.904L213.162 238.94L216.642 241.002C216.028 243.612 216.126 246.35 216.957 248.973C217.048 249.261 217.148 249.545 217.255 249.825Z" fill="#E7E3F4"/>
<path d="M231.314 258.113C229.149 258.112 227 257.593 225.023 256.567C222.248 255.129 220.096 252.842 218.839 250.032C223.376 250.595 227.952 250.893 232.505 250.893C232.781 250.893 233.056 250.892 233.332 250.889L235.301 252.056C235.506 252.178 235.732 252.235 235.954 252.235C236.392 252.235 236.818 252.011 237.058 251.608L237.555 250.768C239.619 250.666 241.669 250.5 243.709 250.267C243.636 250.421 243.56 250.575 243.48 250.727C241.797 253.971 238.948 256.364 235.462 257.467C234.1 257.898 232.703 258.113 231.314 258.113Z" fill="#E9E5F5"/>
<path d="M232.505 250.893C227.952 250.893 223.376 250.595 218.839 250.032C218.625 249.554 218.438 249.062 218.277 248.555C217.567 246.316 217.446 243.986 217.897 241.745L233.332 250.889C233.056 250.892 232.781 250.893 232.505 250.893ZM237.555 250.768L241.479 244.156L245.021 244.808C244.971 246.681 244.531 248.534 243.709 250.267C241.668 250.5 239.619 250.666 237.555 250.768ZM263.677 229.396C262.928 228.834 262.205 228.228 261.512 227.58L261.089 227.185L259.815 228.135L261.663 218.12C262.116 218.953 262.634 219.763 263.218 220.545C263.52 220.95 263.835 221.34 264.162 221.716C264.233 224.318 264.063 226.883 263.677 229.396ZM264.03 219.307C263.244 218.194 262.599 217.023 262.088 215.814L262.916 211.327C263.387 213.982 263.814 216.643 264.03 219.307Z" fill="#E7E3F4"/>
<path d="M66.1382 118.631C66.1247 117.964 66.1431 117.291 66.1947 116.613C67.0218 105.787 76.0712 97.5518 86.7595 97.5518C86.8364 97.5518 86.9132 97.5525 86.9901 97.5532V111.746C79.7053 113.096 72.705 115.441 66.1382 118.631Z" fill="#E8E4F5"/>
<path d="M86.8039 138.816C86.2763 138.816 85.7453 138.796 85.2101 138.755C74.5189 137.939 66.3532 129.125 66.1382 118.631C72.705 115.441 79.7053 113.096 86.9901 111.746V138.815C86.9278 138.816 86.8662 138.816 86.8039 138.816Z" fill="#E7E3F4"/>
<path d="M309.843 251.511C308.122 251.511 306.727 250.117 306.727 248.398C306.727 246.679 308.122 245.285 309.843 245.285C311.563 245.285 312.958 246.679 312.958 248.398C312.958 250.117 311.563 251.511 309.843 251.511Z" fill="#8F8ECB"/>
<path d="M165.921 8.88013C164.2 8.88013 162.805 7.48612 162.805 5.76697C162.805 4.04781 164.2 2.65381 165.921 2.65381C167.641 2.65381 169.036 4.04781 169.036 5.76697C169.036 7.48612 167.641 8.88013 165.921 8.88013Z" fill="#8F8ECB"/>
<path d="M53.3685 280.221C51.6479 280.221 50.253 278.827 50.253 277.108C50.253 275.389 51.6479 273.995 53.3685 273.995C55.0891 273.995 56.4841 275.389 56.4841 277.108C56.4841 278.827 55.0891 280.221 53.3685 280.221Z" fill="#8F8ECB"/>
<path d="M250.015 292.62C248.677 292.62 247.592 291.536 247.592 290.199C247.592 288.862 248.677 287.778 250.015 287.778C251.353 287.778 252.439 288.862 252.439 290.199C252.439 291.536 251.353 292.62 250.015 292.62Z" fill="#F7B4C6"/>
<path d="M39.6147 59.8246C39.0413 59.8246 38.5762 59.3597 38.5762 58.7869C38.5762 58.2134 39.0413 57.7491 39.6147 57.7491C40.1884 57.7491 40.6533 58.2134 40.6533 58.7869C40.6533 59.3597 40.1884 59.8246 39.6147 59.8246Z" fill="#8987CA"/>
<path d="M257.178 30.7905C256.918 30.7905 256.656 30.7636 256.393 30.7075C254.372 30.2758 253.083 28.2896 253.514 26.2702C253.89 24.5144 255.443 23.312 257.17 23.312C257.429 23.312 257.692 23.339 257.955 23.3951C259.975 23.8267 261.265 25.8129 260.833 27.8323C260.457 29.5881 258.905 30.7905 257.178 30.7905Z" fill="#F7B4C6"/>
<path d="M59.4576 11.8127C59.3562 11.8127 59.2532 11.8024 59.1496 11.7802C58.3569 11.6114 57.852 10.8317 58.0213 10.0403C58.1684 9.35127 58.7772 8.88014 59.4546 8.88014C59.5561 8.88014 59.6591 8.8905 59.7622 8.91264C60.5551 9.08213 61.06 9.86045 60.8907 10.6526C60.7436 11.3409 60.1351 11.8127 59.4576 11.8127Z" fill="#F7B4C6"/>
<path d="M293.517 5.47913C293.43 5.47913 293.343 5.47014 293.255 5.45146C292.581 5.30825 292.152 4.6462 292.296 3.97237C292.421 3.3871 292.939 2.98654 293.515 2.98654C293.6 2.98654 293.688 2.99553 293.776 3.01421C294.449 3.1581 294.879 3.82016 294.735 4.49329C294.61 5.07857 294.093 5.47913 293.517 5.47913Z" fill="#8F8ECB"/>
<path d="M29.6972 302.699C29.6108 302.699 29.5238 302.69 29.4362 302.672C28.7627 302.528 28.3333 301.866 28.4769 301.193C28.6021 300.607 29.1195 300.206 29.695 300.206C29.7815 300.206 29.8691 300.215 29.957 300.234C30.6307 300.378 31.0599 301.04 30.916 301.713C30.7911 302.298 30.2732 302.699 29.6972 302.699Z" fill="#8F8ECB"/>
<path d="M58.6241 122.763C58.5351 122.213 58.4618 121.657 58.405 121.098L52.8952 120.678C50.1045 120.465 48.015 118.031 48.2282 115.243C48.4309 112.586 50.6516 110.564 53.2749 110.564C53.4045 110.564 53.5354 110.569 53.6668 110.579L59.1766 110.999C60.2233 106.965 62.1188 103.302 64.6543 100.195L61.0557 96.0042C59.2331 93.8818 59.4771 90.6849 61.6012 88.8634C62.5575 88.0436 63.731 87.6423 64.899 87.6423C66.3261 87.6423 67.7452 88.2421 68.7475 89.4085L72.3463 93.5988C75.8053 91.567 79.7163 90.2504 83.8655 89.8291L84.2858 84.3237C84.4236 82.5174 85.4939 81.0051 86.9901 80.2212V97.5532C86.9132 97.5525 86.8364 97.5518 86.7595 97.5518C76.0711 97.5518 67.0217 105.787 66.1947 116.613C66.1431 117.291 66.1247 117.964 66.1382 118.631C63.5627 119.882 61.0573 121.261 58.6241 122.763Z" fill="#F9F8FD"/>
<path d="M84.229 156.723C84.0996 156.723 83.9694 156.718 83.8379 156.708C81.047 156.495 78.9575 154.062 79.1708 151.273L79.591 145.768C75.554 144.722 71.8887 142.828 68.7783 140.294L64.585 143.889C63.629 144.71 62.455 145.111 61.2869 145.111C59.8598 145.111 58.441 144.512 57.4387 143.345C55.6159 141.222 55.8604 138.025 57.9845 136.204L62.1778 132.608C60.4185 129.618 59.1953 126.29 58.6241 122.763C61.0573 121.261 63.5627 119.882 66.1382 118.631C66.3532 129.125 74.5189 137.939 85.2101 138.755C85.7453 138.796 86.2763 138.816 86.8038 138.816C86.8662 138.816 86.9278 138.816 86.9901 138.815V155.902C86.1911 156.423 85.2398 156.723 84.229 156.723Z" fill="#F9F7FC"/>
<path d="M238.39 270.943C237.722 270.943 237.06 270.783 236.45 270.466C235.567 270.008 234.888 269.272 234.505 268.366C234.915 268.147 235.322 267.921 235.727 267.691C235.971 268.361 236.45 268.908 237.087 269.238C237.496 269.451 237.942 269.559 238.39 269.559C238.679 269.559 238.968 269.514 239.252 269.425C239.974 269.195 240.564 268.7 240.914 268.028C241.263 267.355 241.329 266.587 241.101 265.865L240.681 264.541C241.077 264.261 241.471 263.975 241.862 263.684L242.42 265.447C242.761 266.522 242.663 267.664 242.143 268.665C241.623 269.665 240.745 270.403 239.669 270.744C239.249 270.877 238.818 270.943 238.39 270.943ZM252.1 259.42C251.432 259.42 250.769 259.26 250.158 258.944L248.422 258.043C248.764 257.704 249.104 257.359 249.438 257.011L250.796 257.716C251.206 257.928 251.651 258.036 252.101 258.036C252.389 258.036 252.677 257.992 252.961 257.902C253.683 257.673 254.273 257.177 254.622 256.505C255.343 255.118 254.799 253.402 253.411 252.681L253.269 252.608C253.559 252.239 253.843 251.869 254.124 251.493C256.134 252.588 256.91 255.103 255.851 257.142C255.332 258.143 254.454 258.881 253.378 259.221C252.959 259.354 252.529 259.42 252.1 259.42Z" fill="#FCFDFE"/>
<path d="M220.54 269.402C219.885 269.402 219.222 269.249 218.602 268.928C217.601 268.41 216.863 267.532 216.522 266.457C216.181 265.383 216.28 264.24 216.8 263.24L218.31 260.332C216.318 258.71 214.676 256.759 213.416 254.519L210.291 255.508C209.868 255.642 209.44 255.705 209.018 255.705C207.226 255.706 205.559 254.555 204.991 252.759C204.65 251.685 204.749 250.542 205.268 249.542C205.622 248.86 206.143 248.3 206.779 247.905C207.596 248.092 208.415 248.27 209.237 248.441L208.159 248.782C207.436 249.01 206.846 249.507 206.497 250.179C206.147 250.851 206.082 251.619 206.311 252.341C206.693 253.548 207.814 254.322 209.018 254.322C209.301 254.322 209.589 254.279 209.873 254.189L214.095 252.853L214.365 253.365C215.654 255.814 217.418 257.91 219.61 259.596L220.068 259.949L218.029 263.877C217.679 264.549 217.613 265.317 217.842 266.039C218.071 266.762 218.567 267.351 219.241 267.7C219.657 267.916 220.103 268.019 220.542 268.019C221.569 268.019 222.562 267.46 223.067 266.489L225.107 262.562L225.66 262.734C227.506 263.307 229.397 263.593 231.303 263.593C232.126 263.593 232.951 263.54 233.778 263.433L234.353 263.358L235.689 267.578C235.701 267.616 235.714 267.653 235.728 267.691C235.322 267.921 234.915 268.147 234.506 268.366C234.455 268.246 234.409 268.122 234.369 267.995L233.379 264.872C232.684 264.943 231.99 264.978 231.297 264.978C229.444 264.978 227.607 264.724 225.806 264.219L224.296 267.127C223.544 268.572 222.068 269.402 220.54 269.402ZM253.269 252.608L249.48 250.643L249.651 250.09C249.728 249.843 249.8 249.595 249.867 249.346C250.368 249.253 250.868 249.155 251.368 249.053C251.298 249.351 251.221 249.648 251.138 249.944L254.049 251.453C254.075 251.466 254.1 251.48 254.124 251.493C253.843 251.869 253.559 252.239 253.269 252.608Z" fill="#F9F8FC"/>
<path d="M249.867 249.346C250.179 248.182 250.377 247.001 250.463 245.811L251.833 246.063C251.753 247.067 251.598 248.065 251.368 249.053C250.868 249.155 250.368 249.253 249.867 249.346ZM209.237 248.441C208.415 248.27 207.596 248.092 206.779 247.905C207.076 247.72 207.399 247.571 207.741 247.463L210.867 246.474C210.607 243.918 210.825 241.378 211.52 238.906L210.718 238.49L212.963 238.904C212.177 241.499 211.957 244.179 212.306 246.872L212.381 247.446L209.237 248.441Z" fill="#F9F7FC"/>
<path d="M240.68 264.541L239.763 261.646L240.275 261.377C242.726 260.088 244.824 258.325 246.512 256.135L246.865 255.677L249.438 257.011C249.104 257.359 248.764 257.704 248.422 258.043L247.249 257.435C245.625 259.424 243.672 261.065 241.43 262.324L241.862 263.684C241.471 263.975 241.077 264.261 240.68 264.541ZM231.312 259.496C228.927 259.496 226.562 258.925 224.384 257.796C221.079 256.081 218.574 253.273 217.255 249.825C217.782 249.898 218.31 249.967 218.839 250.032C220.096 252.842 222.248 255.129 225.022 256.567C227 257.593 229.149 258.112 231.314 258.113C232.703 258.113 234.1 257.898 235.462 257.467C238.948 256.364 241.797 253.971 243.48 250.727C243.56 250.575 243.636 250.421 243.709 250.267C244.242 250.206 244.777 250.139 245.308 250.069C245.13 250.507 244.931 250.94 244.71 251.365C242.854 254.936 239.72 257.572 235.88 258.786C234.38 259.261 232.842 259.496 231.312 259.496Z" fill="#F9F8FC"/>
<path d="M243.709 250.267C244.531 248.534 244.971 246.681 245.022 244.808L246.399 245.062C246.328 246.77 245.962 248.46 245.308 250.069C244.777 250.139 244.242 250.206 243.709 250.267ZM218.839 250.032C218.31 249.967 217.782 249.898 217.255 249.825C217.148 249.545 217.048 249.261 216.957 248.973C216.126 246.35 216.028 243.612 216.642 241.002L217.897 241.745C217.446 243.986 217.567 246.316 218.277 248.554C218.438 249.061 218.625 249.554 218.839 250.032Z" fill="#F9F7FC"/>
<path d="M301.146 238.255C301.907 237.21 302.644 236.148 303.356 235.069C303.065 236.249 302.38 237.34 301.332 238.122C301.271 238.168 301.209 238.212 301.146 238.255ZM311.952 218.302C312.185 217.693 312.411 217.084 312.632 216.47C313.56 215.855 314.232 214.864 314.405 213.678C314.505 212.987 314.424 212.311 314.197 211.698C314.382 211.076 314.56 210.452 314.732 209.825C315.577 210.944 315.991 212.385 315.775 213.877C315.461 216.032 313.912 217.711 311.952 218.302Z" fill="white"/>
<path d="M274.746 245.118C274.487 245.118 274.224 245.098 273.961 245.06C272.342 244.825 270.992 243.895 270.169 242.617C270.583 242.408 270.995 242.195 271.405 241.977C272.023 242.874 272.999 243.522 274.16 243.691C274.356 243.719 274.551 243.733 274.744 243.733C276.724 243.733 278.461 242.28 278.754 240.266L279.215 237.09C280.418 236.212 281.588 235.296 282.717 234.347C285.553 233.973 288.287 233.133 290.873 231.842L291.39 231.583L294.831 236.19C295.479 237.057 296.425 237.62 297.497 237.775C297.696 237.804 297.894 237.818 298.091 237.818C298.958 237.818 299.796 237.54 300.504 237.013C302.294 235.677 302.664 233.135 301.326 231.346L297.886 226.739L298.282 226.316C300.844 223.58 302.747 220.387 303.936 216.826L304.119 216.277L309.812 217.104C310.008 217.132 310.202 217.146 310.395 217.146C311.209 217.146 311.983 216.9 312.632 216.47C312.411 217.084 312.185 217.693 311.952 218.302C311.456 218.45 310.935 218.53 310.4 218.53C310.14 218.53 309.877 218.511 309.613 218.472L305.06 217.812C303.864 221.162 302.059 224.192 299.685 226.834L302.437 230.518C303.447 231.871 303.731 233.545 303.356 235.069C302.644 236.148 301.907 237.21 301.146 238.255C300.236 238.876 299.179 239.202 298.09 239.202C297.826 239.202 297.562 239.183 297.298 239.145C295.86 238.936 294.59 238.18 293.722 237.017L290.97 233.333C287.758 234.855 284.338 235.723 280.785 235.915L280.123 240.464C279.731 243.165 277.401 245.117 274.746 245.118ZM314.197 211.698C313.698 210.351 312.497 209.309 310.977 209.089L305.284 208.262L305.265 207.684C305.185 205.316 304.791 203.007 304.089 200.783C304.307 199.981 304.511 199.183 304.699 198.386C305.815 201.152 306.46 204.057 306.623 207.058L311.176 207.72C312.65 207.933 313.899 208.723 314.732 209.825C314.56 210.452 314.382 211.076 314.197 211.698ZM305.221 196C305.356 195.331 305.48 194.663 305.593 193.995L306.898 193.023C308.689 191.688 309.058 189.145 307.721 187.355C307.372 186.888 306.935 186.508 306.438 186.233C306.462 185.734 306.48 185.234 306.492 184.734C307.393 185.092 308.21 185.696 308.832 186.529C310.625 188.929 310.129 192.341 307.726 194.132L305.221 196Z" fill="#FCFDFE"/>
<path d="M270.169 242.617C269.485 241.553 269.166 240.249 269.362 238.902L270.023 234.353C267.654 233.508 265.444 232.358 263.416 230.92C263.513 230.414 263.599 229.907 263.677 229.396C265.892 231.057 268.349 232.343 271.01 233.23L271.559 233.414L270.732 239.101C270.579 240.15 270.847 241.165 271.405 241.977C270.995 242.195 270.584 242.408 270.169 242.617ZM279.215 237.09L279.581 234.576L280.159 234.558C281.02 234.529 281.873 234.459 282.718 234.347C281.588 235.296 280.418 236.212 279.215 237.09ZM304.089 200.783C303.68 199.484 303.165 198.215 302.547 196.979L302.288 196.462L305.593 193.995C305.48 194.663 305.356 195.331 305.221 196L304.04 196.882C304.275 197.378 304.495 197.88 304.699 198.386C304.511 199.183 304.308 199.981 304.089 200.783ZM297.44 189.971L297.016 189.575C294.278 187.014 291.082 185.113 287.52 183.925L286.971 183.743L287.797 178.054C287.953 176.984 287.682 175.917 287.034 175.05C286.387 174.183 285.441 173.62 284.369 173.464C284.171 173.436 283.975 173.422 283.782 173.422C283.666 173.422 283.552 173.427 283.439 173.437L284.257 172.059C284.36 172.068 284.464 172.081 284.568 172.096C286.005 172.304 287.275 173.06 288.144 174.223C289.013 175.386 289.376 176.817 289.167 178.253L288.505 182.803C291.857 183.997 294.89 185.801 297.535 188.173L301.222 185.424C302.196 184.697 303.336 184.347 304.467 184.347C305.158 184.347 305.847 184.477 306.492 184.734C306.48 185.234 306.462 185.734 306.439 186.233C306.016 186 305.55 185.842 305.057 185.77C304.859 185.742 304.661 185.728 304.464 185.728C303.598 185.728 302.757 186.006 302.05 186.533H302.05L297.44 189.971ZM277.994 182.613L279.252 180.494L278.949 182.578L278.37 182.598C278.245 182.602 278.12 182.607 277.994 182.613Z" fill="#FAFAFD"/>
<path d="M263.416 230.92C262.577 230.323 261.769 229.677 260.994 228.982L259.446 230.137L259.815 228.135L261.089 227.185L261.512 227.58C262.205 228.228 262.928 228.834 263.677 229.396C263.599 229.907 263.513 230.414 263.416 230.92Z" fill="#F9F7FC"/>
<path d="M294.034 222.096C295.387 220.2 296.636 218.241 297.771 216.237C296.881 218.394 295.621 220.373 294.034 222.096Z" fill="#FCFDFE"/>
<path d="M279.29 228.577C273.651 228.577 268.075 226.212 264.162 221.716C264.154 221.411 264.142 221.105 264.127 220.8C264.102 220.302 264.07 219.805 264.03 219.307C264.127 219.444 264.226 219.582 264.328 219.718C267.982 224.61 273.601 227.194 279.287 227.194C283.165 227.194 287.073 225.992 290.413 223.503C294.402 220.528 296.994 216.178 297.709 211.255C298.425 206.332 297.179 201.425 294.201 197.439C291.224 193.452 286.871 190.862 281.944 190.148C281.047 190.017 280.15 189.952 279.259 189.95L277.93 188.608C278.359 188.58 278.79 188.565 279.223 188.565C280.191 188.565 281.167 188.636 282.143 188.778C287.437 189.546 292.113 192.328 295.311 196.611C298.511 200.894 299.848 206.165 299.08 211.453C298.837 213.118 298.396 214.722 297.771 216.237C296.636 218.241 295.387 220.2 294.034 222.096C293.192 223.011 292.259 223.853 291.241 224.612C287.654 227.287 283.455 228.577 279.29 228.577Z" fill="#FAFAFD"/>
<path d="M264.162 221.716C263.835 221.34 263.52 220.95 263.218 220.545C262.634 219.763 262.116 218.953 261.663 218.12L262.088 215.814C262.599 217.023 263.244 218.194 264.03 219.307C264.07 219.805 264.103 220.302 264.127 220.8C264.142 221.106 264.154 221.411 264.162 221.716Z" fill="#F9F7FC"/>
<path d="M185.228 247.903H171.006C170.623 247.903 170.314 247.594 170.314 247.211C170.314 246.829 170.623 246.519 171.006 246.519H185.228C185.61 246.519 185.92 246.829 185.92 247.211C185.92 247.594 185.61 247.903 185.228 247.903Z" fill="#FBFCFE"/>
<path d="M185.228 262.676H171.006C170.623 262.676 170.314 262.366 170.314 261.984C170.314 261.601 170.623 261.292 171.006 261.292H185.228C185.61 261.292 185.92 261.601 185.92 261.984C185.92 262.366 185.61 262.676 185.228 262.676Z" fill="#FBFCFE"/>
<path d="M195.963 277.594H108.127C107.092 277.594 106.249 276.753 106.249 275.718V258.152H107.634V275.718C107.634 275.99 107.855 276.211 108.127 276.211H195.963C196.236 276.211 196.456 275.99 196.456 275.718V275.327C196.917 275.377 197.38 275.424 197.841 275.465V275.718C197.841 276.753 196.999 277.594 195.963 277.594Z" fill="#FEFEFF"/>
<path d="M197.841 275.465C197.38 275.424 196.917 275.377 196.456 275.327V245.067C196.917 245.215 197.378 245.361 197.841 245.503V275.465Z" fill="#FBFCFE"/>
<path d="M197.841 245.503C197.378 245.361 196.917 245.215 196.456 245.067V235.863L197.841 236.118V245.503Z" fill="#FBFCFE"/>
<path d="M184.484 240.734H169.98V239.351H180.758C182.003 239.803 183.244 240.267 184.484 240.734Z" fill="#FBFCFE"/>
<path d="M185.228 240.734H184.484C183.244 240.267 182.003 239.803 180.758 239.351H185.228C185.61 239.351 185.92 239.66 185.92 240.042C185.92 240.424 185.61 240.734 185.228 240.734Z" fill="#FBFCFE"/>
<path d="M185.228 255.072H168.792C169.082 254.642 169.325 254.179 169.515 253.689H185.228C185.61 253.689 185.92 253.998 185.92 254.38C185.92 254.763 185.61 255.072 185.228 255.072Z" fill="#FBFCFE"/>
<path d="M153.994 262.676H117.455C117.072 262.676 116.762 262.366 116.762 261.984C116.762 261.601 117.072 261.292 117.455 261.292H153.994C154.377 261.292 154.686 261.601 154.686 261.984C154.686 262.366 154.377 262.676 153.994 262.676Z" fill="#FEFEFF"/>
<path d="M142.096 269.519H117.455C117.072 269.519 116.762 269.21 116.762 268.827C116.762 268.445 117.072 268.136 117.455 268.136H142.096C142.479 268.136 142.789 268.445 142.789 268.827C142.789 269.21 142.479 269.519 142.096 269.519Z" fill="#FEFEFF"/>
<path d="M47.9244 203.609H33.1676C32.7851 203.609 32.4752 203.3 32.4752 202.918C32.4752 202.535 32.7851 202.226 33.1676 202.226H47.9244V203.609Z" fill="#FBFCFE"/>
<path d="M47.9244 187.006H33.1676C32.7851 187.006 32.4752 186.696 32.4752 186.314C32.4752 185.932 32.7851 185.622 33.1676 185.622H47.9244V187.006Z" fill="#FBFCFE"/>
<path d="M20.1772 223.933C19.6855 223.709 19.3069 223.278 19.1525 222.753C19.4886 223.15 19.8305 223.544 20.1772 223.933Z" fill="white"/>
<path d="M22.8005 224.101H20.9539C20.6769 224.101 20.4141 224.041 20.1772 223.933C19.8305 223.544 19.4886 223.15 19.1525 222.753C19.1032 222.585 19.0767 222.408 19.0767 222.225V211.57C19.4716 213.449 19.9335 215.314 20.4614 217.157V222.225C20.4614 222.496 20.6823 222.717 20.9539 222.717H22.2767C22.4468 223.18 22.6217 223.642 22.8005 224.101Z" fill="#FEFEFF"/>
<path d="M30.7059 224.101H22.8005C22.6217 223.642 22.4468 223.18 22.2767 222.717H29.3799C29.8124 223.189 30.254 223.65 30.7059 224.101ZM20.4614 217.157C19.9335 215.314 19.4716 213.449 19.0767 211.57V205.863C19.2444 206.279 19.4161 206.693 19.5922 207.105C19.8713 207.76 20.1609 208.41 20.4614 209.056V217.157Z" fill="#FDFDFE"/>
<path d="M19.0767 178.536V170.73C19.0767 169.696 19.9186 168.854 20.9539 168.854H21.755C21.5978 169.314 21.4442 169.776 21.2949 170.238H20.9539C20.6823 170.238 20.4614 170.459 20.4614 170.73V172.979C19.9381 174.809 19.4759 176.662 19.0767 178.536Z" fill="#FBFCFE"/>
<path d="M47.9244 224.101H30.7059C30.254 223.65 29.8124 223.189 29.3799 222.717H47.9244V224.101ZM20.4614 209.056C20.1609 208.41 19.8713 207.76 19.5922 207.105C19.4161 206.693 19.2444 206.279 19.0767 205.863V178.536C19.4759 176.662 19.9381 174.809 20.4614 172.979V209.056ZM48.5541 170.238H21.2949C21.4442 169.776 21.5978 169.314 21.755 168.854H49.2951C49.0071 169.281 48.7579 169.745 48.5541 170.238Z" fill="#FBFCFE"/>
<path d="M47.9244 211.666H33.1676C32.7851 211.666 32.4752 211.357 32.4752 210.975C32.4752 210.592 32.7851 210.283 33.1676 210.283H47.9244V211.666Z" fill="#FBFCFE"/>
<path d="M47.9244 195.551H33.1676C32.7851 195.551 32.4752 195.242 32.4752 194.859C32.4752 194.477 32.7851 194.168 33.1676 194.168H47.9244V195.551Z" fill="#FBFCFE"/>
<path d="M216.642 241.002L213.162 238.94L217.027 239.652C216.877 240.097 216.749 240.547 216.642 241.002Z" fill="#D1CCEB"/>
<path d="M235.954 252.235C235.732 252.235 235.506 252.178 235.301 252.056L233.332 250.889C234.742 250.878 236.152 250.838 237.555 250.768L237.057 251.608C236.818 252.011 236.391 252.235 235.954 252.235Z" fill="#D2CEEB"/>
<path d="M233.332 250.889L217.897 241.745C218.022 241.124 218.191 240.509 218.404 239.906L220.423 240.278L233.333 247.927C233.538 248.048 233.763 248.106 233.986 248.106C234.424 248.106 234.85 247.881 235.09 247.478L237.496 243.423L241.479 244.156L237.555 250.768C236.152 250.838 234.742 250.878 233.332 250.889Z" fill="#D1CCEB"/>
<path d="M217.897 241.745L216.642 241.002C216.749 240.547 216.877 240.097 217.027 239.652L218.404 239.906C218.191 240.509 218.022 241.124 217.897 241.745Z" fill="#DFDDF2"/>
<path d="M263.8 206.537L264.643 201.969L265.81 203.148L263.8 206.537ZM275.746 186.402L272.984 183.612L273.17 183.299C274.743 182.92 276.354 182.691 277.994 182.613L275.746 186.402ZM274.132 181.677L295.596 145.501L297.763 146.785C298.371 147.146 298.572 147.931 298.211 148.54L284.257 172.059C284.097 172.046 283.939 172.039 283.782 172.039C281.133 172.039 278.799 173.991 278.406 176.691L277.744 181.24C276.524 181.306 275.318 181.452 274.132 181.677ZM279.252 180.494L279.776 176.89C280.052 174.995 281.604 173.593 283.439 173.437L279.252 180.494Z" fill="#D7D3EE"/>
<path d="M273.17 183.299L274.132 181.677C275.318 181.452 276.524 181.306 277.744 181.24L278.406 176.691C278.799 173.991 281.133 172.039 283.782 172.039C283.939 172.039 284.097 172.046 284.257 172.059L283.439 173.437C281.604 173.593 280.052 174.995 279.776 176.89L279.252 180.494L277.994 182.613C276.354 182.691 274.743 182.92 273.17 183.299Z" fill="#E2DFF2"/>
<path d="M233.333 247.926L157.578 203.046C156.969 202.686 156.768 201.9 157.129 201.291L218.283 98.2236C218.644 97.6148 219.43 97.4142 220.04 97.7753L295.795 142.655C296.404 143.016 296.605 143.801 296.244 144.41L235.09 247.478C234.729 248.086 233.943 248.288 233.333 247.926Z" fill="#F795B4"/>
<path d="M262.916 211.327C262.766 210.483 262.612 209.64 262.459 208.797L263.8 206.537L262.916 211.327Z" fill="#D7D3EE"/>
<path d="M255.328 246.685C255.251 246.685 255.173 246.678 255.094 246.664L251.833 246.063C251.912 245.078 251.919 244.087 251.851 243.093L253.243 243.349C253.253 243.351 253.264 243.353 253.274 243.355L254.503 243.581L254.731 242.346C254.733 242.338 254.734 242.33 254.736 242.322L254.907 241.39L254.917 241.387C257.137 240.684 258.371 238.309 257.668 236.092C257.409 235.274 256.92 234.572 256.261 234.053L256.607 232.177C256.849 232.047 257.083 231.898 257.307 231.732L259.446 230.137L256.587 245.636C256.473 246.253 255.934 246.685 255.328 246.685Z" fill="#D1CCEB"/>
<path d="M250.463 245.811L246.399 245.062C246.441 244.062 246.382 243.055 246.221 242.056L250.444 242.834C250.528 243.83 250.535 244.824 250.463 245.811ZM255.215 239.726L255.954 235.717C256.124 235.956 256.258 236.222 256.348 236.509C256.738 237.74 256.24 239.043 255.215 239.726Z" fill="#D1CCEB"/>
<path d="M245.021 244.808L241.479 244.156L243.069 241.475L244.765 241.788C244.964 242.79 245.049 243.802 245.021 244.808ZM256.96 230.264L259.972 213.936C260.369 215.37 260.932 216.774 261.663 218.12L259.815 228.135L256.96 230.264ZM262.088 215.814C261.498 214.413 261.089 212.961 260.859 211.493L262.459 208.797C262.612 209.64 262.766 210.483 262.916 211.327L262.088 215.814Z" fill="#D1CCEB"/>
<path d="M251.833 246.063L250.463 245.811C250.535 244.824 250.528 243.83 250.444 242.834L251.851 243.093C251.919 244.087 251.912 245.078 251.833 246.063ZM254.907 241.39L255.215 239.726C256.24 239.043 256.738 237.74 256.348 236.509C256.258 236.222 256.124 235.956 255.954 235.717L256.261 234.053C256.92 234.572 257.409 235.274 257.668 236.092C258.371 238.309 257.137 240.684 254.917 241.387L254.907 241.39Z" fill="#DFDDF2"/>
<path d="M246.399 245.062L245.022 244.808C245.049 243.802 244.964 242.79 244.765 241.788L246.221 242.056C246.382 243.055 246.441 244.062 246.399 245.062Z" fill="#DFDDF2"/>
<path d="M256.607 232.177L256.96 230.264L259.815 228.135L259.446 230.137L257.307 231.732C257.083 231.898 256.849 232.047 256.607 232.177Z" fill="#DFDDF2"/>
<path d="M261.663 218.12C260.932 216.774 260.369 215.37 259.972 213.935L260.226 212.56L260.859 211.493C261.089 212.961 261.498 214.413 262.088 215.814L261.663 218.12Z" fill="#DFDDF2"/>
<path d="M210.718 238.49L197.841 236.119V233.145L205.878 234.625L206.565 235.032C206.92 236.058 207.642 236.895 208.61 237.397L210.718 238.49Z" fill="#D1CCEB"/>
<path d="M213.162 238.94L212.963 238.904C212.969 238.88 212.976 238.857 212.983 238.834L213.162 238.94Z" fill="#D1CCEB"/>
<path d="M212.963 238.904L210.718 238.49L208.61 237.397C207.642 236.895 206.92 236.058 206.565 235.032L212.983 238.835C212.976 238.857 212.969 238.88 212.963 238.904Z" fill="#DFDDF2"/>
<path d="M196.456 235.863L169.98 230.987V229.671H178.982L196.456 232.89V235.863ZM171.47 228.288H169.98V228.013L171.47 228.288Z" fill="#D1CCEB"/>
<path d="M197.841 236.118L196.456 235.863V232.89L197.841 233.145V236.118ZM178.982 229.671H169.98V228.288H171.47L178.982 229.671Z" fill="#E3E3F4"/>
<path d="M277.575 131.861L275.355 130.546L276.175 126.102L277.296 126.308C277.992 126.436 278.453 127.105 278.324 127.8L277.575 131.861Z" fill="#D1CCEB"/>
<path d="M241.479 244.156L237.496 243.423L239.087 240.742L243.069 241.475L241.479 244.156Z" fill="#BBB6E1"/>
<path d="M206.565 235.032L205.878 234.625L206.474 234.735C206.491 234.799 206.509 234.862 206.529 234.925C206.54 234.961 206.552 234.996 206.565 235.032Z" fill="#BBB6E1"/>
<path d="M217.027 239.652L213.162 238.94L212.983 238.835C212.991 238.81 212.999 238.785 213.007 238.76L213.179 238.207L209.248 236.168C208.746 235.908 208.341 235.513 208.073 235.03L213.138 235.962L217.459 238.522C217.299 238.894 217.155 239.271 217.027 239.652Z" fill="#BBB6E1"/>
<path d="M220.423 240.278L218.404 239.906C218.484 239.681 218.569 239.456 218.661 239.234L220.423 240.278Z" fill="#BBB6E1"/>
<path d="M212.983 238.835L206.565 235.032C206.552 234.996 206.54 234.961 206.529 234.925C206.509 234.862 206.491 234.798 206.474 234.735L208.073 235.03C208.341 235.513 208.746 235.908 209.248 236.168L213.179 238.207L213.007 238.76C212.999 238.785 212.991 238.81 212.983 238.835Z" fill="#C9C5E7"/>
<path d="M218.404 239.906L217.027 239.652C217.155 239.271 217.299 238.894 217.459 238.522L218.661 239.234C218.569 239.457 218.484 239.681 218.404 239.906Z" fill="#C9C5E7"/>
<path d="M262.459 208.797C262.199 207.361 261.941 205.928 261.713 204.496L262.219 201.755L263.048 200.358L264.643 201.969L263.8 206.537L262.459 208.797Z" fill="#C2BCE4"/>
<path d="M260.859 211.493C260.783 211.012 260.727 210.53 260.69 210.046L261.713 204.496C261.941 205.928 262.199 207.361 262.459 208.797L260.859 211.493Z" fill="#BBB6E1"/>
<path d="M260.226 212.56L260.69 210.046C260.727 210.53 260.783 211.012 260.859 211.493L260.226 212.56Z" fill="#C9C5E7"/>
<path d="M237.496 243.423L220.423 240.278L218.661 239.234L217.459 238.522L213.138 235.962L239.087 240.742L237.496 243.423ZM262.219 201.755L262.567 199.872L263.048 200.358L262.219 201.755ZM268.807 179.393L266.731 177.296L267.052 175.559L275.355 130.546L277.575 131.861L268.807 179.393Z" fill="#DF8AB2"/>
<path d="M254.503 243.581L165.372 227.164L187.574 106.809L276.705 123.226L254.503 243.581Z" fill="white"/>
<path d="M253.274 243.355C253.264 243.353 253.253 243.351 253.243 243.349L251.851 243.093C251.851 243.093 251.851 243.093 251.851 243.093L253.274 243.355Z" fill="#DEB6DC"/>
<path d="M250.444 242.834L246.221 242.056L250.444 242.833C250.444 242.833 250.444 242.833 250.444 242.834Z" fill="#DEB6DC"/>
<path d="M244.765 241.788L243.069 241.475H243.07L244.765 241.787C244.765 241.787 244.765 241.787 244.765 241.788Z" fill="#DEB6DC"/>
<path d="M251.851 243.093L250.444 242.834C250.444 242.833 250.444 242.833 250.444 242.833L251.851 243.093C251.851 243.093 251.851 243.093 251.851 243.093Z" fill="#E9C2DD"/>
<path d="M246.221 242.056L244.765 241.788C244.765 241.787 244.765 241.787 244.765 241.787L246.221 242.056Z" fill="#E9C2DD"/>
<path d="M254.731 242.346L254.907 241.39L254.736 242.322C254.734 242.33 254.733 242.338 254.731 242.346Z" fill="#DEB6DC"/>
<path d="M255.214 239.726L255.954 235.717L255.215 239.726H255.214Z" fill="#DEB6DC"/>
<path d="M256.96 230.264L259.972 213.935V213.936L256.96 230.264H256.96Z" fill="#DEB6DC"/>
<path d="M254.907 241.39L255.214 239.726H255.215L254.907 241.39Z" fill="#E9C2DD"/>
<path d="M256.607 232.177L256.96 230.264H256.96L256.607 232.177Z" fill="#E9C2DD"/>
<path d="M259.972 213.936V213.935L260.226 212.56L259.972 213.936Z" fill="#E9C2DD"/>
<path d="M205.879 234.625L197.841 233.145V233.144L205.878 234.625H205.879ZM196.456 232.89L178.982 229.672H178.984L196.456 232.889V232.89ZM171.472 228.288H171.47L169.98 228.013V228.013L171.472 228.288Z" fill="#DEB6DC"/>
<path d="M197.841 233.145L196.456 232.89V232.889L197.841 233.144V233.145ZM178.984 229.671H178.982L171.47 228.288H171.472L178.984 229.671Z" fill="#EBC5DD"/>
<path d="M243.069 241.475L239.087 240.742V240.741L243.07 241.475H243.069Z" fill="#D3AAD6"/>
<path d="M206.474 234.735L205.879 234.625H205.878L206.474 234.734C206.474 234.735 206.474 234.735 206.474 234.735Z" fill="#D3AAD6"/>
<path d="M213.138 235.962L208.073 235.03C208.073 235.03 208.073 235.03 208.073 235.029L213.138 235.962H213.138Z" fill="#D3AAD6"/>
<path d="M208.073 235.03L206.474 234.735C206.474 234.735 206.474 234.735 206.474 234.734L208.073 235.029C208.073 235.03 208.073 235.03 208.073 235.03Z" fill="#DAB3D5"/>
<path d="M261.713 204.496V204.496L262.219 201.755L261.713 204.496Z" fill="#D6AED6"/>
<path d="M260.69 210.046C260.69 210.045 260.69 210.046 260.69 210.045L261.713 204.496V204.496L260.69 210.046Z" fill="#D3AAD6"/>
<path d="M260.226 212.56L260.69 210.045C260.69 210.046 260.69 210.045 260.69 210.046L260.226 212.56Z" fill="#DAB3D5"/>
<path d="M239.087 240.742L213.138 235.962H213.138L239.087 240.741V240.742ZM262.219 201.755L262.566 199.872H262.567L262.219 201.755Z" fill="#E98EB3"/>
<path d="M253.477 243.371C253.41 243.371 253.342 243.365 253.274 243.355L251.851 243.093L250.444 242.833L246.221 242.056L244.765 241.787L243.07 241.475L239.087 240.741L213.138 235.962L208.073 235.029L206.474 234.734L205.878 234.625L197.841 233.144L196.456 232.889L178.984 229.672L171.472 228.288L169.98 228.013V202.187L171.418 194.391H187.962C191.014 194.391 193.844 193.32 196.168 191.495L214.603 194.891L214.729 194.902C215.057 194.902 215.348 194.669 215.409 194.336C215.479 193.959 215.231 193.599 214.855 193.53L197.482 190.33C198.701 189.113 199.734 187.667 200.526 186.051C204.169 186.864 207.954 187.293 211.838 187.293C217.855 187.293 223.708 186.28 229.228 184.311L251.161 188.35L262.566 199.872L262.219 201.755L261.713 204.496L260.69 210.045L260.226 212.56L259.972 213.935L256.96 230.264L256.607 232.177L256.261 234.053L255.954 235.717L255.214 239.726L254.907 241.39L254.731 242.346C254.608 242.95 254.075 243.371 253.477 243.371ZM249.457 186.63L231.695 183.358C235.412 181.811 238.961 179.817 242.286 177.395C242.254 177.933 242.444 178.482 242.855 178.892L245.262 181.298C245.004 181.73 244.904 182.031 245.017 182.145L249.457 186.63ZM266.731 177.296L258.274 168.754C258.245 168.724 258.202 168.71 258.148 168.71C257.959 168.71 257.624 168.878 257.182 169.179L254.879 166.878C254.5 166.498 254.004 166.31 253.508 166.31C253.503 166.31 253.498 166.31 253.493 166.31C256.881 161.748 259.455 156.754 261.166 151.475C261.197 151.414 261.22 151.349 261.233 151.28C261.235 151.27 261.237 151.261 261.238 151.252C262.669 146.766 263.479 142.072 263.637 137.261C263.769 137.161 263.865 137.013 263.898 136.837C263.944 136.583 263.846 136.337 263.661 136.182C263.664 135.956 263.666 135.73 263.666 135.505C263.666 130.257 262.88 125.188 261.421 120.411L275.444 122.994C276.141 123.122 276.601 123.79 276.473 124.486L267.052 175.559L266.731 177.296Z" fill="#FCD9E5"/>
<path d="M263.217 137.404L263.09 137.392L241.41 133.399C241.034 133.33 240.786 132.969 240.855 132.594C240.925 132.218 241.281 131.97 241.662 132.039L263.342 136.032C263.718 136.101 263.967 136.461 263.897 136.837C263.836 137.171 263.545 137.404 263.217 137.404Z" fill="white"/>
<path d="M261.94 144.324L261.814 144.313L240.134 140.319C239.758 140.25 239.509 139.889 239.578 139.514C239.648 139.139 240.005 138.89 240.386 138.959L262.066 142.952C262.442 143.021 262.69 143.382 262.621 143.758C262.559 144.091 262.268 144.324 261.94 144.324Z" fill="white"/>
<path d="M260.553 151.846L260.427 151.835L238.746 147.842C238.37 147.773 238.122 147.412 238.192 147.036C238.26 146.661 238.617 146.413 238.998 146.481L260.678 150.474C261.054 150.543 261.303 150.904 261.233 151.28C261.172 151.614 260.88 151.846 260.553 151.846Z" fill="white"/>
<path d="M225.645 155.925L190.233 149.403C189.479 149.264 188.981 148.541 189.12 147.788L196.092 109.996C196.23 109.242 196.954 108.744 197.707 108.883L233.119 115.405C233.873 115.545 234.372 116.267 234.233 117.021L227.262 154.813C227.122 155.566 226.399 156.064 225.645 155.925Z" fill="#6C92D3"/>
<path d="M206.105 132.358C205.836 132.358 205.564 132.333 205.291 132.283L204.762 132.185C201.959 131.669 200.097 128.969 200.614 126.167L201.946 118.945C202.05 118.381 202.595 118.007 203.156 118.113C203.72 118.216 204.093 118.757 203.989 119.321L202.657 126.543C202.348 128.22 203.462 129.835 205.139 130.145L205.667 130.242C206.972 130.484 208.228 129.617 208.469 128.313L211.841 110.034C212.089 108.689 211.196 107.393 209.85 107.145L208.946 106.979C207.512 106.715 206.14 107.663 205.876 109.091L205.793 109.542C205.688 110.106 205.14 110.478 204.584 110.375C204.02 110.271 203.646 109.73 203.75 109.167L203.833 108.715C204.306 106.161 206.769 104.466 209.322 104.938L210.226 105.104C212.698 105.559 214.339 107.939 213.884 110.41L210.512 128.69C210.114 130.845 208.223 132.358 206.105 132.358Z" fill="#3C419F"/>
<path d="M209.71 117.008L209.646 117.003L195.807 114.454C195.619 114.419 195.495 114.239 195.529 114.051C195.564 113.863 195.742 113.735 195.932 113.773L209.772 116.322C209.96 116.357 210.084 116.537 210.05 116.725C210.019 116.892 209.873 117.008 209.71 117.008Z" fill="white"/>
<path d="M252.027 188.498L251.901 188.486L185.655 176.285C185.279 176.216 185.03 175.855 185.1 175.479C185.17 175.104 185.525 174.853 185.906 174.924L252.153 187.126C252.529 187.195 252.777 187.556 252.707 187.932C252.646 188.265 252.355 188.498 252.027 188.498Z" fill="white"/>
<path d="M247.291 214.174L247.165 214.162L180.918 201.961C180.542 201.892 180.294 201.531 180.363 201.155C180.432 200.78 180.789 200.528 181.169 200.6L247.416 212.802C247.792 212.87 248.041 213.231 247.972 213.608C247.91 213.94 247.618 214.174 247.291 214.174Z" fill="white"/>
<path d="M214.729 194.902L214.603 194.891L183.287 189.122C182.911 189.054 182.661 188.693 182.731 188.316C182.801 187.941 183.157 187.689 183.538 187.761L214.855 193.53C215.231 193.599 215.479 193.959 215.409 194.336C215.348 194.669 215.057 194.902 214.729 194.902Z" fill="white"/>
<path d="M219.044 171.511L218.918 171.5L187.601 165.732C187.225 165.662 186.977 165.302 187.047 164.926C187.116 164.551 187.473 164.303 187.853 164.371L219.169 170.139C219.545 170.207 219.794 170.569 219.725 170.945C219.663 171.278 219.372 171.511 219.044 171.511Z" fill="white"/>
<path d="M249.677 201.236L249.551 201.224L219.714 195.728C219.338 195.659 219.089 195.299 219.158 194.922C219.228 194.547 219.584 194.297 219.965 194.368L249.803 199.864C250.179 199.933 250.427 200.294 250.358 200.67C250.296 201.003 250.006 201.236 249.677 201.236Z" fill="white"/>
<path d="M242.663 65.2573H205.844C204.569 65.2573 203.536 64.2244 203.536 62.9515V50.6462C203.536 49.3726 204.569 48.3404 205.844 48.3404H242.663C243.937 48.3404 244.971 49.3726 244.971 50.6462V62.9515C244.971 64.2244 243.937 65.2573 242.663 65.2573Z" fill="#6C92D3"/>
<path d="M270.4 83.6969H218.897C217.623 83.6969 216.589 82.6647 216.589 81.3911V63.0906C216.589 61.8176 217.623 60.7854 218.897 60.7854H270.4C271.675 60.7854 272.708 61.8176 272.708 63.0906V81.3911C272.708 82.6647 271.675 83.6969 270.4 83.6969Z" fill="#F795B4"/>
<path d="M230.304 78.8535H287.336C289.059 78.8535 290.469 80.2621 290.469 81.984V99.4412C290.469 101.163 289.059 102.572 287.336 102.572H230.304C228.581 102.572 227.172 101.163 227.172 99.4412V81.984C227.172 80.2621 228.581 78.8535 230.304 78.8535Z" fill="white"/>
<path d="M287.336 102.572H251.808C245.453 94.8849 236.923 89.0536 227.172 86.0297V81.984C227.172 80.2621 228.581 78.8535 230.304 78.8535H287.336C289.059 78.8535 290.469 80.2621 290.469 81.984V99.4412C290.469 101.163 289.059 102.572 287.336 102.572Z" fill="#958ACC"/>
<path d="M270.376 88.687C269.241 88.687 268.318 89.6092 268.318 90.743C268.318 91.8762 269.241 92.7984 270.376 92.7984C271.511 92.7984 272.433 91.8762 272.433 90.743C272.433 89.6092 271.511 88.687 270.376 88.687ZM270.376 93.4902C268.86 93.4902 267.626 92.2581 267.626 90.743C267.626 89.228 268.86 87.9952 270.376 87.9952C271.892 87.9952 273.126 89.228 273.126 90.743C273.126 92.2581 271.892 93.4902 270.376 93.4902Z" fill="white"/>
<path d="M259.031 88.687C257.897 88.687 256.974 89.6092 256.974 90.743C256.974 91.8762 257.897 92.7984 259.031 92.7984C260.166 92.7984 261.089 91.8762 261.089 90.743C261.089 89.6092 260.166 88.687 259.031 88.687ZM259.031 93.4902C257.515 93.4902 256.282 92.2581 256.282 90.743C256.282 89.228 257.515 87.9952 259.031 87.9952C260.548 87.9952 261.781 89.228 261.781 90.743C261.781 92.2581 260.548 93.4902 259.031 93.4902Z" fill="white"/>
<path d="M248.456 88.687C247.321 88.687 246.398 89.6092 246.398 90.743C246.398 91.8762 247.321 92.7984 248.456 92.7984C249.59 92.7984 250.512 91.8762 250.512 90.743C250.512 89.6092 249.59 88.687 248.456 88.687ZM248.456 93.4902C246.939 93.4902 245.706 92.2581 245.706 90.743C245.706 89.228 246.939 87.9952 248.456 87.9952C249.972 87.9952 251.205 89.228 251.205 90.743C251.205 92.2581 249.972 93.4902 248.456 93.4902Z" fill="white"/>
<path d="M91.5644 49.9973H179.936C181.716 49.9973 183.159 51.4398 183.159 53.2177V183.281C183.159 189.417 178.182 194.39 172.042 194.39H110.681C97.5968 194.39 86.9901 183.792 86.9901 170.718V54.5688C86.9901 52.0444 89.0381 49.9973 91.5644 49.9973Z" fill="white"/>
<path d="M86.9901 54.5688V51.1215C86.9901 50.501 87.4934 49.9973 88.1145 49.9973H91.5644C89.0381 49.9973 86.9901 52.0444 86.9901 54.5688Z" fill="#BAB0DE"/>
<path d="M95.5315 169.583C94.2175 167.422 91.8393 165.978 89.1239 165.978H86.9901V54.5688C86.9901 52.0444 89.0381 49.9973 91.5644 49.9973H179.936H96.2952C95.8736 49.9973 95.5315 50.3391 95.5315 50.7604V169.583Z" fill="#CBC2E6"/>
<path d="M183.159 92.3868V51.7241C183.159 50.7701 182.386 49.9973 181.431 49.9973H181.793C182.548 49.9973 183.159 50.6089 183.159 51.363V92.3868Z" fill="#A6A2D8"/>
<path d="M183.159 92.3868V53.2177C183.159 51.4398 181.716 49.9973 179.936 49.9973H181.431C182.386 49.9973 183.159 50.7701 183.159 51.7241V92.3868Z" fill="#8883C9"/>
<path d="M122.316 185.819H104.083C99.9597 185.819 96.6171 182.479 96.6171 178.358V173.466C96.6171 172.044 96.2204 170.715 95.5315 169.583V50.7604C95.5315 50.3391 95.8735 49.9973 96.2952 49.9973H179.936C181.716 49.9973 183.159 51.4397 183.159 53.2177V92.3867C174.128 98.4041 167.086 107.175 163.244 117.492H128.568C128.186 117.492 127.876 117.802 127.876 118.184C127.876 118.566 128.186 118.876 128.568 118.876H162.751C161.458 122.674 160.596 126.668 160.223 130.802H111.986C111.603 130.802 111.293 131.112 111.293 131.494C111.293 131.876 111.603 132.186 111.986 132.186H160.116C160.046 133.284 160.011 134.389 160.011 135.505C160.011 149.828 165.859 162.811 175.296 172.196H124.176V178.306C124.176 181.02 123.504 183.576 122.316 185.819Z" fill="#938ECF"/>
<path d="M108.953 194.366V194.391H186.196C195.086 194.391 202.294 187.189 202.294 178.306V172.196H124.176V178.306C124.176 186.896 117.437 193.913 108.953 194.366Z" fill="#5E56B0"/>
<path d="M187.962 194.391H171.418H186.196C189.692 194.391 192.929 193.277 195.569 191.384L196.168 191.495C193.844 193.32 191.014 194.391 187.962 194.391ZM197.482 190.33L196.99 190.24C198.328 189.03 199.461 187.601 200.332 186.007C200.396 186.022 200.462 186.036 200.526 186.051C199.734 187.667 198.701 189.113 197.482 190.33Z" fill="#C9ADD2"/>
<path d="M196.168 191.495L195.569 191.384C196.065 191.03 196.539 190.647 196.99 190.24L197.482 190.33C197.065 190.746 196.626 191.135 196.168 191.495Z" fill="#CCCBE6"/>
<path d="M186.196 194.391H169.98V192.793C169.98 188.942 166.855 185.819 163.001 185.819H131.091C132.148 183.576 132.747 181.02 132.747 178.306V172.196H175.296C182.072 178.933 190.695 183.816 200.332 186.007C199.461 187.601 198.328 189.03 196.99 190.24C196.539 190.647 196.065 191.03 195.569 191.384C192.929 193.277 189.692 194.391 186.196 194.391Z" fill="#5450AC"/>
<path d="M168.563 155.553H113.024C112.641 155.553 112.331 155.243 112.331 154.861C112.331 154.479 112.641 154.169 113.024 154.169H168.563C168.945 154.169 169.255 154.479 169.255 154.861C169.255 155.243 168.945 155.553 168.563 155.553Z" fill="white"/>
<path d="M169.728 132.186H111.986C111.603 132.186 111.293 131.876 111.293 131.494C111.293 131.112 111.603 130.802 111.986 130.802H169.728C170.111 130.802 170.42 131.112 170.42 131.494C170.42 131.876 170.111 132.186 169.728 132.186Z" fill="white"/>
<path d="M140.793 143.859H111.288C110.906 143.859 110.596 143.55 110.596 143.167C110.596 142.785 110.906 142.475 111.288 142.475H140.793C141.176 142.475 141.485 142.785 141.485 143.167C141.485 143.55 141.176 143.859 140.793 143.859Z" fill="white"/>
<path d="M138.558 143.859H113.523C113.141 143.859 112.831 143.55 112.831 143.167C112.831 142.785 113.141 142.475 113.523 142.475H138.558C138.94 142.475 139.25 142.785 139.25 143.167C139.25 143.55 138.94 143.859 138.558 143.859Z" fill="white"/>
<path d="M150.398 107.202H112.387C112.004 107.202 111.695 106.892 111.695 106.51C111.695 106.128 112.004 105.818 112.387 105.818H150.398C150.78 105.818 151.09 106.128 151.09 106.51C151.09 106.892 150.78 107.202 150.398 107.202Z" fill="white"/>
<path d="M168.018 107.202H156.44C156.058 107.202 155.748 106.892 155.748 106.51C155.748 106.128 156.058 105.818 156.44 105.818H168.018C168.401 105.818 168.711 106.128 168.711 106.51C168.711 106.892 168.401 107.202 168.018 107.202Z" fill="white"/>
<path d="M169.728 118.876H128.568C128.186 118.876 127.876 118.566 127.876 118.184C127.876 117.802 128.186 117.492 128.568 117.492H169.728C170.111 117.492 170.42 117.802 170.42 118.184C170.42 118.566 170.111 118.876 169.728 118.876Z" fill="white"/>
<path d="M124.503 118.876H111.986C111.603 118.876 111.293 118.566 111.293 118.184C111.293 117.802 111.603 117.492 111.986 117.492H124.503C124.885 117.492 125.195 117.802 125.195 118.184C125.195 118.566 124.885 118.876 124.503 118.876Z" fill="white"/>
<path d="M168.563 97.318H113.024C112.641 97.318 112.331 97.0081 112.331 96.6262C112.331 96.2436 112.641 95.9344 113.024 95.9344H168.563C168.945 95.9344 169.255 96.2436 169.255 96.6262C169.255 97.0081 168.945 97.318 168.563 97.318Z" fill="white"/>
<path d="M168.563 73.9513H113.024C112.641 73.9513 112.331 73.6414 112.331 73.2595C112.331 72.8769 112.641 72.5677 113.024 72.5677H168.563C168.945 72.5677 169.255 72.8769 169.255 73.2595C169.255 73.6414 168.945 73.9513 168.563 73.9513Z" fill="white"/>
<path d="M133.408 85.625H112.387C112.004 85.625 111.695 85.3151 111.695 84.9332C111.695 84.5506 112.004 84.2414 112.387 84.2414H133.408C133.79 84.2414 134.1 84.5506 134.1 84.9332C134.1 85.3151 133.79 85.625 133.408 85.625Z" fill="white"/>
<path d="M168.14 85.625H143.106C142.724 85.625 142.414 85.3151 142.414 84.9332C142.414 84.5506 142.724 84.2414 143.106 84.2414H168.14C168.523 84.2414 168.833 84.5506 168.833 84.9332C168.833 85.3151 168.523 85.625 168.14 85.625Z" fill="white"/>
<path d="M183.159 130.742V122.063C183.862 120.462 184.681 118.927 185.609 117.464L183.159 130.742ZM248.904 114.876L220.04 97.7753C219.834 97.6535 219.609 97.5961 219.387 97.5961C218.949 97.5961 218.523 97.8203 218.283 98.2236L213.111 106.941C212.447 106.011 211.436 105.326 210.226 105.104L209.322 104.938C209.035 104.884 208.748 104.859 208.466 104.859C206.239 104.859 204.252 106.449 203.833 108.715L203.75 109.167C203.709 109.392 203.743 109.613 203.835 109.804L194.383 108.063C200.11 103.851 207.179 101.36 214.82 101.36C216.35 101.36 217.59 100.121 217.59 98.5923C217.59 97.0641 216.35 95.8251 214.82 95.8251C201.963 95.8251 190.501 101.904 183.159 111.336V104.278C190.718 97.3415 200.791 93.1021 211.838 93.1021C217.243 93.1021 222.413 94.117 227.172 95.9655V99.4412C227.172 101.163 228.581 102.572 230.304 102.572H238.54C242.726 105.967 246.257 110.144 248.904 114.876ZM210.665 111.062L205.484 110.108C205.639 109.962 205.751 109.767 205.793 109.542L205.876 109.091C206.11 107.824 207.217 106.934 208.466 106.934C208.624 106.934 208.785 106.949 208.946 106.978L209.85 107.145C210.875 107.333 211.637 108.13 211.833 109.094L210.665 111.062Z" fill="#EDE9F6"/>
<path d="M250.681 118.432L213.662 111.614L213.884 110.41C214.117 109.149 213.802 107.911 213.111 106.941L218.283 98.2236C218.523 97.8203 218.949 97.5961 219.387 97.5961C219.609 97.5961 219.834 97.6535 220.04 97.7753L248.904 114.876C249.55 116.029 250.143 117.216 250.681 118.432ZM211.619 111.237L210.665 111.062L211.833 109.094C211.894 109.396 211.901 109.713 211.841 110.034L211.619 111.237Z" fill="#F9ACC4"/>
<path d="M250.681 118.433L213.662 111.614V111.614L250.681 118.432V118.433ZM211.619 111.238L205.484 110.108L210.665 111.062L211.619 111.237V111.238ZM203.836 109.805L194.382 108.063L194.383 108.063L203.835 109.804C203.835 109.804 203.836 109.804 203.836 109.805Z" fill="white"/>
<path d="M183.159 130.742L185.609 117.464V117.463L183.159 130.742Z" fill="#F2D2EB"/>
<path d="M211.838 177.907C208.558 177.907 205.362 177.534 202.294 176.826V172.196H190.585C187.912 170.644 185.423 168.809 183.159 166.732V130.742L185.609 117.463C187.924 113.811 190.907 110.619 194.382 108.063L203.836 109.805C203.85 109.833 203.865 109.861 203.881 109.888L197.731 108.756C197.646 108.74 197.561 108.732 197.478 108.732C196.821 108.732 196.238 109.2 196.114 109.868L189.401 146.258L189.12 147.788C189.119 147.789 189.119 147.791 189.118 147.793L188.751 149.785C188.612 150.538 189.111 151.261 189.865 151.4L227.01 158.243C227.095 158.258 227.181 158.265 227.264 158.265C227.92 158.265 228.504 157.798 228.626 157.13L235.99 117.212C236.129 116.46 235.631 115.737 234.877 115.598L213.649 111.688L213.662 111.614L250.681 118.433C252.845 123.329 254.107 128.708 254.258 134.358L241.662 132.039C241.619 132.031 241.576 132.027 241.535 132.027C241.205 132.027 240.917 132.26 240.855 132.594C240.786 132.969 241.034 133.33 241.41 133.399L254.273 135.768C254.261 137.69 254.12 139.586 253.859 141.44L240.386 138.959C240.343 138.951 240.3 138.947 240.259 138.947C239.929 138.947 239.641 139.181 239.578 139.514C239.509 139.889 239.758 140.25 240.134 140.319L253.643 142.807C253.28 144.892 252.763 146.927 252.106 148.895L238.998 146.481C238.955 146.473 238.913 146.47 238.871 146.47C238.54 146.47 238.252 146.702 238.192 147.036C238.122 147.411 238.37 147.773 238.746 147.842L251.64 150.217C245.642 166.367 230.063 177.907 211.838 177.907ZM187.727 164.36C187.397 164.36 187.108 164.593 187.047 164.926C186.977 165.302 187.225 165.662 187.601 165.732L218.918 171.5L219.044 171.511C219.372 171.511 219.663 171.278 219.725 170.945C219.794 170.569 219.545 170.207 219.169 170.139L187.853 164.371C187.81 164.364 187.769 164.36 187.727 164.36ZM211.606 111.311L205.411 110.171C205.436 110.15 205.46 110.13 205.484 110.108L211.619 111.238L211.606 111.311Z" fill="#FDE1EA"/>
<path d="M254.273 135.768L241.41 133.399C241.034 133.33 240.786 132.969 240.855 132.594C240.917 132.26 241.205 132.027 241.535 132.027C241.576 132.027 241.619 132.031 241.662 132.039L254.258 134.358C254.268 134.74 254.273 135.121 254.273 135.505C254.273 135.593 254.273 135.68 254.273 135.768Z" fill="white"/>
<path d="M253.643 142.807L240.134 140.319C239.758 140.25 239.509 139.889 239.578 139.514C239.641 139.181 239.929 138.947 240.259 138.947C240.3 138.947 240.343 138.951 240.386 138.959L253.859 141.44C253.794 141.9 253.723 142.354 253.643 142.807Z" fill="white"/>
<path d="M251.64 150.217L238.746 147.842C238.37 147.773 238.122 147.411 238.192 147.036C238.252 146.702 238.54 146.47 238.871 146.47C238.913 146.47 238.955 146.473 238.998 146.481L252.106 148.895C251.957 149.34 251.802 149.779 251.64 150.217Z" fill="white"/>
<path d="M227.264 158.265C227.181 158.265 227.095 158.258 227.01 158.243L189.865 151.401C189.111 151.261 188.612 150.539 188.751 149.785L189.118 147.793C188.983 148.544 189.481 149.264 190.233 149.403L225.645 155.925C225.73 155.941 225.815 155.949 225.898 155.949C226.555 155.949 227.138 155.481 227.262 154.813L233.576 120.586L234.015 118.205L234.233 117.021C234.233 117.018 234.234 117.016 234.235 117.014L234.249 116.933C234.379 116.228 233.913 115.551 233.207 115.421L213.625 111.815L213.649 111.688L234.877 115.598C235.631 115.737 236.129 116.46 235.99 117.213L228.626 157.13C228.504 157.798 227.92 158.265 227.264 158.265ZM189.401 146.258L196.114 109.868C196.238 109.2 196.821 108.732 197.478 108.732C197.561 108.732 197.646 108.74 197.731 108.756L203.881 109.888C203.914 109.942 203.951 109.993 203.993 110.041L197.667 108.875C197.585 108.86 197.503 108.853 197.422 108.853C196.785 108.853 196.218 109.306 196.099 109.955L196.012 110.428L189.401 146.258ZM211.582 111.439L205.253 110.273C205.308 110.243 205.361 110.209 205.411 110.171L211.606 111.311L211.582 111.439Z" fill="#EAD0E4"/>
<path d="M225.898 155.948C225.815 155.948 225.73 155.941 225.645 155.925L190.233 149.403C189.481 149.264 188.983 148.544 189.118 147.793C189.119 147.791 189.119 147.789 189.12 147.788L189.401 146.258L196.012 110.428L195.434 113.562L210.672 116.369L208.469 128.313C208.255 129.47 207.243 130.283 206.107 130.283C205.962 130.283 205.815 130.269 205.667 130.242L205.139 130.145C203.462 129.835 202.348 128.22 202.657 126.543L203.989 119.321C204.093 118.757 203.72 118.216 203.156 118.113C203.092 118.101 203.029 118.095 202.966 118.095C202.478 118.095 202.038 118.445 201.946 118.945L200.614 126.167C200.097 128.969 201.959 131.669 204.762 132.185L205.291 132.283C205.564 132.333 205.836 132.358 206.105 132.358C208.223 132.358 210.114 130.845 210.512 128.69L212.715 116.745L233.576 120.586L227.262 154.813C227.138 155.481 226.555 155.948 225.898 155.948ZM195.866 113.767C195.702 113.767 195.56 113.885 195.529 114.051C195.495 114.239 195.619 114.419 195.807 114.454L209.646 117.003L209.71 117.008C209.873 117.008 210.019 116.892 210.05 116.725C210.084 116.537 209.96 116.357 209.772 116.322L195.932 113.774C195.91 113.769 195.887 113.767 195.866 113.767ZM234.015 118.205L234.235 117.014C234.234 117.016 234.233 117.018 234.233 117.021L234.015 118.205Z" fill="#89ADE0"/>
<path d="M234.235 117.014C234.369 116.263 233.871 115.544 233.119 115.405L213.625 111.815L233.207 115.421C233.913 115.551 234.38 116.228 234.249 116.933L234.235 117.014Z" fill="#EAD4E6"/>
<path d="M233.576 120.586L212.715 116.745L213.625 111.815L233.119 115.405C233.871 115.544 234.369 116.263 234.235 117.014L234.015 118.205L233.576 120.586Z" fill="#90B3E3"/>
<path d="M211.582 111.439L205.252 110.273H205.253L211.582 111.439ZM196.012 110.428L196.099 109.955C196.218 109.306 196.785 108.853 197.422 108.853C197.503 108.853 197.585 108.86 197.667 108.875L203.993 110.04L197.708 108.883C197.622 108.867 197.538 108.86 197.455 108.86C196.798 108.86 196.215 109.327 196.092 109.995L196.012 110.428Z" fill="#EAD4E6"/>
<path d="M210.672 116.368L195.434 113.562L196.012 110.428L196.092 109.995C196.215 109.327 196.798 108.86 197.455 108.86C197.538 108.86 197.622 108.867 197.707 108.883L203.993 110.04C204.141 110.209 204.346 110.331 204.584 110.375C204.646 110.386 204.709 110.392 204.771 110.392C204.941 110.392 205.106 110.35 205.252 110.273L211.582 111.439L210.672 116.368Z" fill="#90B3E3"/>
<path d="M206.105 132.358C205.836 132.358 205.564 132.333 205.291 132.283L204.762 132.185C201.959 131.669 200.097 128.969 200.614 126.167L201.946 118.945C202.038 118.445 202.478 118.095 202.966 118.095C203.029 118.095 203.092 118.101 203.156 118.113C203.72 118.216 204.093 118.757 203.989 119.321L202.657 126.543C202.348 128.22 203.462 129.835 205.139 130.145L205.667 130.242C205.815 130.269 205.962 130.283 206.107 130.283C207.243 130.283 208.255 129.47 208.469 128.313L210.672 116.368L211.582 111.439L211.606 111.311L211.619 111.238V111.237L211.841 110.034C211.901 109.713 211.894 109.396 211.833 109.094C211.637 108.13 210.875 107.333 209.85 107.145L208.946 106.979C208.785 106.949 208.624 106.934 208.466 106.934C207.217 106.934 206.11 107.824 205.876 109.091L205.793 109.542C205.751 109.767 205.639 109.962 205.484 110.108C205.46 110.13 205.436 110.15 205.411 110.171C205.361 110.209 205.308 110.243 205.253 110.273H205.252C205.106 110.35 204.941 110.392 204.771 110.392C204.709 110.392 204.646 110.386 204.584 110.375C204.346 110.331 204.141 110.209 203.993 110.04C203.951 109.993 203.914 109.942 203.881 109.888C203.865 109.861 203.85 109.833 203.836 109.805C203.836 109.804 203.835 109.804 203.835 109.804C203.743 109.613 203.709 109.392 203.75 109.167L203.833 108.715C204.252 106.449 206.239 104.859 208.466 104.859C208.748 104.859 209.035 104.884 209.322 104.938L210.226 105.104C211.436 105.326 212.447 106.011 213.111 106.941C213.802 107.911 214.117 109.149 213.884 110.41L213.662 111.614V111.614L213.649 111.688L213.625 111.815L212.715 116.745L210.512 128.69C210.114 130.845 208.223 132.358 206.105 132.358Z" fill="#6465B6"/>
<path d="M209.71 117.008L209.646 117.003L195.807 114.454C195.619 114.419 195.495 114.239 195.529 114.051C195.56 113.885 195.702 113.767 195.866 113.767C195.887 113.767 195.91 113.769 195.932 113.773L209.772 116.322C209.96 116.357 210.084 116.537 210.05 116.725C210.019 116.892 209.873 117.008 209.71 117.008Z" fill="white"/>
<path d="M219.044 171.511L218.918 171.5L187.601 165.732C187.225 165.662 186.977 165.302 187.047 164.926C187.108 164.593 187.397 164.36 187.727 164.36C187.769 164.36 187.81 164.364 187.853 164.371L219.169 170.139C219.545 170.207 219.794 170.569 219.725 170.945C219.663 171.278 219.372 171.511 219.044 171.511Z" fill="white"/>
<path d="M238.54 102.572H230.304C228.581 102.572 227.172 101.163 227.172 99.4412V95.9655C231.314 97.5754 235.143 99.8162 238.54 102.572Z" fill="#AEA3D9"/>
<path d="M183.159 166.732C174.709 158.976 169.403 147.847 169.403 135.505C169.403 134.387 169.447 133.282 169.532 132.186H169.728C170.111 132.186 170.42 131.876 170.42 131.494C170.42 131.112 170.111 130.802 169.728 130.802H169.663C170.822 120.353 175.797 111.035 183.159 104.278V111.336C177.878 118.122 174.73 126.643 174.73 135.885C174.73 137.413 175.971 138.652 177.499 138.652C179.029 138.652 180.269 137.413 180.269 135.885C180.269 130.973 181.301 126.297 183.159 122.063V166.732Z" fill="#ACA6DA"/>
<path d="M202.294 176.826C198.123 175.864 194.188 174.288 190.585 172.196H202.294V176.826Z" fill="#7974C1"/>
<path d="M169.728 132.186H169.532C169.568 131.723 169.611 131.261 169.663 130.802H169.728C170.111 130.802 170.42 131.112 170.42 131.494C170.42 131.876 170.111 132.186 169.728 132.186Z" fill="white"/>
<path d="M183.159 122.063V111.336C190.501 101.904 201.963 95.8251 214.82 95.8251C216.35 95.8251 217.59 97.0642 217.59 98.5924C217.59 100.121 216.35 101.36 214.82 101.36C207.179 101.36 200.11 103.851 194.383 108.063L187.574 106.809L187.346 108.047C187.345 108.054 187.343 108.061 187.342 108.069L185.609 117.464C184.681 118.927 183.862 120.462 183.159 122.063Z" fill="#FBFCFE"/>
<path d="M194.382 108.063L188.835 107.041C188.756 107.027 188.678 107.02 188.601 107.02C188.002 107.02 187.468 107.441 187.346 108.047L187.574 106.809L194.383 108.063L194.382 108.063Z" fill="white"/>
<path d="M185.609 117.464L187.342 108.069C187.343 108.061 187.344 108.054 187.346 108.047L185.609 117.463V117.464Z" fill="#FCF8FC"/>
<path d="M185.609 117.463L187.346 108.047C187.468 107.441 188.002 107.02 188.601 107.02C188.678 107.02 188.756 107.027 188.835 107.041L194.382 108.063C190.907 110.619 187.924 113.811 185.609 117.463Z" fill="#FFFAFB"/>
<path d="M177.499 138.652C175.971 138.652 174.73 137.413 174.73 135.884C174.73 126.643 177.878 118.122 183.159 111.336V122.063C181.301 126.297 180.269 130.973 180.269 135.884C180.269 137.413 179.029 138.652 177.499 138.652Z" fill="#EDEDF8"/>
<path d="M250.064 115.562L248.904 114.876C246.257 110.144 242.726 105.967 238.54 102.572H239.625C243.891 106.171 247.451 110.581 250.064 115.562Z" fill="#8584CA"/>
<path d="M251.502 118.584L250.681 118.432C250.143 117.216 249.55 116.029 248.904 114.875L250.064 115.562C250.581 116.548 251.061 117.555 251.502 118.584Z" fill="#886CB2"/>
<path d="M251.502 118.584L250.681 118.433V118.432L251.502 118.584Z" fill="#8F8ECB"/>
<path d="M211.838 178.599C208.559 178.599 205.365 178.232 202.294 177.536V176.826C205.362 177.534 208.558 177.907 211.838 177.907C230.063 177.907 245.642 166.367 251.64 150.217L252.331 150.343C246.266 166.819 230.403 178.599 211.838 178.599ZM252.793 149.022L252.106 148.895C252.763 146.927 253.28 144.892 253.643 142.807L254.325 142.933C253.96 145.018 253.447 147.051 252.793 149.022ZM254.541 141.566L253.859 141.44C254.12 139.586 254.261 137.69 254.273 135.768L254.964 135.896C254.947 137.817 254.803 139.711 254.541 141.566ZM254.954 134.486L254.258 134.358C254.107 128.708 252.845 123.329 250.681 118.433L251.502 118.584C253.604 123.486 254.822 128.856 254.954 134.486Z" fill="#8C80C1"/>
<path d="M254.964 135.896L254.273 135.768C254.273 135.68 254.273 135.593 254.273 135.505C254.273 135.121 254.268 134.74 254.258 134.358L254.954 134.486C254.961 134.825 254.966 135.164 254.966 135.505C254.966 135.635 254.965 135.765 254.964 135.896Z" fill="#8F8ECB"/>
<path d="M254.325 142.933L253.643 142.807C253.723 142.354 253.794 141.9 253.859 141.44L254.541 141.566C254.475 142.024 254.403 142.48 254.325 142.933Z" fill="#8F8ECB"/>
<path d="M252.331 150.343L251.64 150.217C251.802 149.779 251.957 149.34 252.106 148.895L252.793 149.022C252.646 149.465 252.492 149.907 252.331 150.343Z" fill="#8F8ECB"/>
<path d="M183.159 104.278V103.346C190.786 96.5466 200.838 92.4103 211.838 92.4103C217.236 92.4103 222.405 93.4065 227.172 95.2239V95.9655C222.413 94.117 217.243 93.1021 211.838 93.1021C200.791 93.1021 190.718 97.3415 183.159 104.278Z" fill="#8584CA"/>
<path d="M239.625 102.572H238.54C235.143 99.8162 231.314 97.5754 227.172 95.9655V95.2239C231.744 96.968 235.947 99.4689 239.625 102.572Z" fill="#6966BA"/>
<path d="M190.585 172.196H189.238C187.078 170.863 185.045 169.345 183.159 167.664V166.732C185.423 168.809 187.912 170.644 190.585 172.196Z" fill="#8C80C1"/>
<path d="M183.159 167.664C174.299 159.767 168.711 148.276 168.711 135.505C168.711 134.388 168.754 133.282 168.837 132.186H169.532C169.447 133.282 169.403 134.387 169.403 135.505C169.403 147.847 174.709 158.976 183.159 166.732V167.664Z" fill="#6868BA"/>
<path d="M169.663 130.802H168.966C170.152 119.93 175.401 110.261 183.159 103.346V104.278C175.797 111.035 170.822 120.353 169.663 130.802Z" fill="#6868BA"/>
<path d="M202.294 177.536C197.608 176.474 193.21 174.647 189.238 172.196H190.585C194.188 174.288 198.123 175.864 202.294 176.826V177.536Z" fill="#5454AE"/>
<path d="M169.532 132.186H168.837C168.873 131.724 168.916 131.26 168.966 130.802H169.663C169.612 131.261 169.568 131.723 169.532 132.186Z" fill="#8F8ECB"/>
<path d="M211.838 179.291C187.637 179.291 168.018 159.687 168.018 135.505C168.018 111.322 187.637 91.7192 211.838 91.7192C236.039 91.7192 255.658 111.322 255.658 135.505C255.658 159.687 236.039 179.291 211.838 179.291ZM252.115 166.878C252.18 166.813 252.252 166.762 252.323 166.708C258.996 158.076 262.974 147.257 262.974 135.505C262.974 107.286 240.08 84.4088 211.838 84.4088C183.597 84.4088 160.703 107.286 160.703 135.505C160.703 163.724 183.597 186.601 211.838 186.601C223.55 186.601 234.33 182.652 242.952 176.034L248.867 170.122L252.115 166.878Z" fill="#3C419F"/>
<path d="M211.838 92.4103C188.058 92.4103 168.711 111.742 168.711 135.505C168.711 159.268 188.058 178.599 211.838 178.599C235.619 178.599 254.966 159.268 254.966 135.505C254.966 111.742 235.619 92.4103 211.838 92.4103ZM211.838 179.983C187.294 179.983 167.326 160.03 167.326 135.505C167.326 110.98 187.294 91.0266 211.838 91.0266C236.382 91.0266 256.35 110.98 256.35 135.505C256.35 160.03 236.382 179.983 211.838 179.983ZM211.838 85.1006C184.024 85.1006 161.395 107.712 161.395 135.505C161.395 163.298 184.024 185.909 211.838 185.909C223.02 185.909 233.619 182.314 242.494 175.512L251.626 166.389C251.691 166.323 251.76 166.266 251.831 166.212C258.668 157.336 262.282 146.72 262.282 135.505C262.282 107.712 239.652 85.1006 211.838 85.1006ZM211.838 187.293C183.26 187.293 160.011 164.061 160.011 135.505C160.011 106.949 183.26 83.717 211.838 83.717C240.417 83.717 263.666 106.949 263.666 135.505C263.666 147.059 259.933 157.996 252.871 167.131L252.74 167.26C252.673 167.311 252.637 167.334 252.606 167.365L243.374 176.582C234.247 183.589 223.341 187.293 211.838 187.293Z" fill="#3C419F"/>
<path d="M250.851 174.867L248.867 172.885C248.104 172.122 248.104 170.885 248.867 170.122L242.952 176.034L242.855 176.13C242.091 176.892 242.091 178.13 242.855 178.892L245.262 181.298C246.057 179.968 248.378 177.365 250.851 174.867Z" fill="#4E5DB3"/>
<path d="M248.867 170.122C248.104 170.885 248.104 172.122 248.867 172.885L250.851 174.867C253.243 172.45 255.767 170.14 257.184 169.181L254.879 166.878C254.18 166.179 253.089 166.128 252.323 166.708C252.252 166.761 252.18 166.813 252.115 166.878L248.867 170.122Z" fill="#4E5DB3"/>
<path d="M250.85 174.866L248.867 172.885C248.485 172.504 248.295 172.004 248.295 171.504C248.295 171.004 248.485 170.504 248.867 170.122L252.115 166.878C252.18 166.813 252.252 166.761 252.323 166.708C252.673 166.443 253.091 166.31 253.508 166.31C254.004 166.31 254.5 166.498 254.879 166.878L257.182 169.179C255.764 170.141 253.238 172.453 250.85 174.866Z" fill="#4750AB"/>
<path d="M294.285 205.127L258.274 168.754C258.145 168.622 257.751 168.796 257.184 169.181C255.767 170.14 253.243 172.45 250.851 174.867C248.378 177.365 246.057 179.968 245.262 181.298C245.004 181.73 244.904 182.031 245.017 182.145L281.028 218.519C284.688 222.217 290.623 222.217 294.285 218.519C297.945 214.821 297.945 208.826 294.285 205.127Z" fill="#6C92D3"/>
<path d="M250.851 174.867C253.243 172.45 255.767 170.14 257.184 169.181L257.182 169.179C257.624 168.878 257.959 168.71 258.148 168.71C258.202 168.71 258.245 168.724 258.274 168.754C258.246 168.725 258.204 168.71 258.15 168.71C257.961 168.71 257.624 168.882 257.184 169.181C255.767 170.14 253.243 172.45 250.851 174.867Z" fill="#E4C3DC"/>
<path d="M250.147 175.585C250.152 175.579 250.158 175.573 250.164 175.567C250.391 175.333 250.62 175.099 250.85 174.866L250.851 174.867C250.614 175.105 250.38 175.345 250.147 175.585Z" fill="#4C59B1"/>
<path d="M250.851 174.867L250.85 174.866C253.238 172.453 255.764 170.141 257.182 169.179L257.184 169.181C255.767 170.14 253.243 172.45 250.851 174.867Z" fill="#454EAA"/>
<path d="M293.646 218.742C287.175 218.737 247.439 178.683 250.147 175.585C250.38 175.345 250.614 175.105 250.851 174.867C253.243 172.45 255.767 170.14 257.184 169.181C257.624 168.882 257.961 168.71 258.15 168.71C258.204 168.71 258.246 168.725 258.274 168.754L294.284 205.127C296.115 206.977 297.03 209.4 297.03 211.823C297.03 214.247 296.115 216.67 294.284 218.519C294.136 218.67 293.922 218.742 293.646 218.742Z" fill="#6386CD"/>
<path d="M161.312 159.966H42.9453C36.0299 159.966 30.4239 154.365 30.4239 147.455C30.4239 140.545 36.0299 134.943 42.9453 134.943H161.312C168.228 134.943 173.834 140.545 173.834 147.455C173.834 154.365 168.228 159.966 161.312 159.966Z" fill="white"/>
<path d="M161.312 159.966H142.06L141.967 134.943H161.312C168.228 134.943 173.834 140.545 173.834 147.455C173.834 154.365 168.228 159.966 161.312 159.966Z" fill="#6C92D3"/>
<path d="M156.44 142.278C154.183 142.278 152.348 144.112 152.348 146.367C152.348 148.621 154.183 150.456 156.44 150.456C157.534 150.456 158.561 150.031 159.334 149.259C160.106 148.486 160.533 147.459 160.533 146.367C160.533 144.112 158.697 142.278 156.44 142.278ZM156.44 151.84C153.42 151.84 150.963 149.385 150.963 146.367C150.963 143.349 153.42 140.894 156.44 140.894C159.46 140.894 161.918 143.349 161.918 146.367C161.918 147.829 161.347 149.203 160.313 150.237C159.278 151.27 157.903 151.84 156.44 151.84Z" fill="white"/>
<path d="M164.145 154.804C163.968 154.804 163.791 154.737 163.655 154.601L159.311 150.26C159.04 149.99 159.04 149.552 159.311 149.281C159.581 149.011 160.019 149.012 160.29 149.281L164.634 153.623C164.905 153.894 164.905 154.332 164.634 154.601C164.499 154.737 164.322 154.804 164.145 154.804Z" fill="white"/>
<path d="M163.001 185.819H104.083C99.9597 185.819 96.6171 182.479 96.6171 178.358V173.466C96.6171 169.331 93.262 165.978 89.1239 165.978H61.91C57.7717 165.978 54.4167 169.331 54.4167 173.466V192.793V215.012V251.179C54.4167 255.031 57.5415 258.152 61.3959 258.152H163.001C166.855 258.152 169.98 255.031 169.98 251.179V192.793C169.98 188.942 166.855 185.819 163.001 185.819Z" fill="#F26690"/>
<path d="M156.509 185.819H97.5905C93.4669 185.819 90.1243 182.479 90.1243 178.358V173.466C90.1243 169.331 86.7699 165.978 82.6318 165.978H55.4177C51.2793 165.978 47.9244 169.331 47.9244 173.466V192.793V215.012V251.179C47.9244 255.031 51.0492 258.152 54.9036 258.152H156.509C160.363 258.152 163.488 255.031 163.488 251.179V192.793C163.488 188.942 160.363 185.819 156.509 185.819Z" fill="#F26690"/>
<path d="M156.509 258.152H141.565C144.889 258.152 147.583 255.031 147.583 251.179V192.793C147.583 188.942 144.889 185.819 141.565 185.819H90.755C87.1992 185.819 84.3169 182.479 84.3169 178.358V173.466C84.3169 169.331 81.4236 165.978 77.8546 165.978H55.4177H82.6318C86.7699 165.978 90.1243 169.331 90.1243 173.466V178.358C90.1243 182.479 93.4669 185.819 97.5905 185.819H156.509C160.363 185.819 163.488 188.942 163.488 192.793V251.179C163.488 255.031 160.363 258.152 156.509 258.152Z" fill="#F5799E"/>
<path d="M106.249 258.152H53.9433C50.6192 258.152 47.9244 255.031 47.9244 251.179C47.9244 255.031 51.0492 258.152 54.9036 258.152H106.249Z" fill="#F8F7FC"/>
<path d="M47.9244 173.466C47.9244 172.31 48.1506 171.215 48.5541 170.238H48.6547C48.1865 171.215 47.9244 172.31 47.9244 173.466ZM49.5139 168.854H49.2951C50.478 167.104 52.319 165.978 54.3865 165.978H55.4177C53.0202 165.978 50.8856 167.104 49.5139 168.854Z" fill="#EBE7F6"/>
<path d="M48.6547 170.238H48.5541C48.758 169.745 49.0071 169.281 49.2951 168.854H49.5139C49.1799 169.281 48.891 169.745 48.6547 170.238Z" fill="#FCFDFE"/>
<path d="M141.565 258.152H54.9036C51.0492 258.152 47.9244 255.031 47.9244 251.179V215.012V192.793V173.466C47.9244 169.331 51.2793 165.978 55.4177 165.978H77.8546C81.4237 165.978 84.317 169.331 84.317 173.466V178.358C84.317 182.479 87.1992 185.819 90.7551 185.819H141.565C144.889 185.819 147.583 188.942 147.583 192.793V251.179C147.583 255.031 144.889 258.152 141.565 258.152Z" fill="#F68AAB"/>
<path d="M53.3686 193.589C52.9861 193.589 52.6762 193.279 52.6762 192.897V175.92C52.6762 173.291 54.8168 171.152 57.448 171.152H77.5016C77.8837 171.152 78.1939 171.462 78.1939 171.844C78.1939 172.226 77.8837 172.536 77.5016 172.536H57.448C55.5805 172.536 54.0609 174.054 54.0609 175.92V192.897C54.0609 193.279 53.7509 193.589 53.3686 193.589Z" fill="white"/>
</svg>
